<?xml version="1.0" encoding="utf-8"?>
<svg xmlns="http://www.w3.org/2000/svg" viewBox="1956.887 971.6798 635.4509 899.6014" width="635.451px" height="899.597px">
  <defs>
    <clipPath id="clip-56">
      <path clip-rule="nonzero" d="M 2052 994 L 2677 994 L 2677 1430 L 2052 1430 Z M 2052 994 "/>
    </clipPath>
    <clipPath id="clip-57">
      <path clip-rule="evenodd" d="M 2106.589844 1394.679688 C 2026.558594 1343.761719 2016.480469 1335.011719 2016.480469 1251.179688 C 2016.480469 1240.519531 2011.941406 1218.53125 2016.480469 1209.460938 C 2025.210938 1192 2047.640625 1183.859375 2056.53125 1166.078125 C 2066.261719 1146.601562 2069.230469 1120.648438 2079.890625 1099.328125 C 2103.488281 1052.128906 2285.28125 1006.191406 2336.859375 995.871094 C 2364.339844 990.378906 2393.859375 1003.941406 2420.289062 1009.21875 C 2441.78125 1013.519531 2474.710938 1001.558594 2493.710938 1014.230469 C 2502.96875 1020.398438 2500.96875 1037.609375 2512.070312 1045.929688 C 2531.558594 1060.550781 2561.199219 1054.839844 2580.480469 1069.289062 C 2623.128906 1101.28125 2692.988281 1173.960938 2672.261719 1236.160156 C 2668.769531 1246.621094 2655.011719 1253.410156 2652.230469 1264.519531 C 2645.089844 1293.070312 2651.339844 1322.441406 2632.210938 1347.960938 C 2618.550781 1366.171875 2602.640625 1379.011719 2593.109375 1398.070312 C 2586.328125 1411.640625 2570.648438 1480.898438 2565.808594 1553.53125 C 2560.070312 1639.691406 2564.890625 1730.058594 2551.949219 1730.269531 C 2524.179688 1730.730469 2540.980469 1458.03125 2503.800781 1466.621094 C 2475.921875 1473.058594 2496.261719 1953.609375 2479.691406 1957.21875 C 2471.5 1959.011719 2456.691406 1866.480469 2455.328125 1519.828125 C 2455.300781 1510.851562 2458.878906 1480.410156 2446.988281 1476.441406 C 2439.339844 1473.890625 2437.25 1477.300781 2435.308594 1483.121094 C 2406.980469 1568.089844 2439.121094 1812.628906 2417.019531 1812.058594 C 2390.261719 1811.359375 2412.480469 1457.019531 2375.238281 1468.101562 C 2351.199219 1475.25 2362.710938 2002.816406 2336.859375 2005.402344 C 2311.320312 2007.957031 2320.070312 1560.441406 2315.960938 1545.308594 C 2310.070312 1523.609375 2295.851562 1535.511719 2293.46875 1548.191406 C 2283.808594 1599.859375 2284.289062 1832.160156 2266.78125 1830.191406 C 2243.089844 1827.53125 2260.289062 1583.710938 2255.089844 1531.511719 C 2253.921875 1519.660156 2222.539062 1526.539062 2220.050781 1531.511719 C 2213.320312 1544.96875 2213.269531 1561.761719 2206.699219 1574.890625 C 2181.96875 1624.359375 2167.941406 1498.648438 2164.988281 1489.789062 C 2150.160156 1445.289062 2101.578125 1470.320312 2101.578125 1393.011719 "/>
    </clipPath>
    <clipPath id="clip-58">
      <path clip-rule="nonzero" d="M 2014 1154 L 2306 1154 L 2306 1356 L 2014 1356 Z M 2014 1154 "/>
    </clipPath>
    <clipPath id="clip-59">
      <path clip-rule="evenodd" d="M 2106.589844 1394.679688 C 2026.558594 1343.761719 2016.480469 1335.011719 2016.480469 1251.179688 C 2016.480469 1240.519531 2011.941406 1218.53125 2016.480469 1209.460938 C 2025.210938 1192 2047.640625 1183.859375 2056.53125 1166.078125 C 2066.261719 1146.601562 2069.230469 1120.648438 2079.890625 1099.328125 C 2103.488281 1052.128906 2285.28125 1006.191406 2336.859375 995.871094 C 2364.339844 990.378906 2393.859375 1003.941406 2420.289062 1009.21875 C 2441.78125 1013.519531 2474.710938 1001.558594 2493.710938 1014.230469 C 2502.96875 1020.398438 2500.96875 1037.609375 2512.070312 1045.929688 C 2531.558594 1060.550781 2561.199219 1054.839844 2580.480469 1069.289062 C 2623.128906 1101.28125 2692.988281 1173.960938 2672.261719 1236.160156 C 2668.769531 1246.621094 2655.011719 1253.410156 2652.230469 1264.519531 C 2645.089844 1293.070312 2651.339844 1322.441406 2632.210938 1347.960938 C 2618.550781 1366.171875 2602.640625 1379.011719 2593.109375 1398.070312 C 2586.328125 1411.640625 2570.648438 1480.898438 2565.808594 1553.53125 C 2560.070312 1639.691406 2564.890625 1730.058594 2551.949219 1730.269531 C 2524.179688 1730.730469 2540.980469 1458.03125 2503.800781 1466.621094 C 2475.921875 1473.058594 2496.261719 1953.609375 2479.691406 1957.21875 C 2471.5 1959.011719 2456.691406 1866.480469 2455.328125 1519.828125 C 2455.300781 1510.851562 2458.878906 1480.410156 2446.988281 1476.441406 C 2439.339844 1473.890625 2437.25 1477.300781 2435.308594 1483.121094 C 2406.980469 1568.089844 2439.121094 1812.628906 2417.019531 1812.058594 C 2390.261719 1811.359375 2412.480469 1457.019531 2375.238281 1468.101562 C 2351.199219 1475.25 2362.710938 2002.816406 2336.859375 2005.402344 C 2311.320312 2007.957031 2320.070312 1560.441406 2315.960938 1545.308594 C 2310.070312 1523.609375 2295.851562 1535.511719 2293.46875 1548.191406 C 2283.808594 1599.859375 2284.289062 1832.160156 2266.78125 1830.191406 C 2243.089844 1827.53125 2260.289062 1583.710938 2255.089844 1531.511719 C 2253.921875 1519.660156 2222.539062 1526.539062 2220.050781 1531.511719 C 2213.320312 1544.96875 2213.269531 1561.761719 2206.699219 1574.890625 C 2181.96875 1624.359375 2167.941406 1498.648438 2164.988281 1489.789062 C 2150.160156 1445.289062 2101.578125 1470.320312 2101.578125 1393.011719 "/>
    </clipPath>
    <clipPath id="clip-60">
      <path clip-rule="nonzero" d="M 2086 1269 L 2517 1269 L 2517 1532 L 2086 1532 Z M 2086 1269 "/>
    </clipPath>
    <clipPath id="clip-61">
      <path clip-rule="evenodd" d="M 2106.589844 1394.679688 C 2026.558594 1343.761719 2016.480469 1335.011719 2016.480469 1251.179688 C 2016.480469 1240.519531 2011.941406 1218.53125 2016.480469 1209.460938 C 2025.210938 1192 2047.640625 1183.859375 2056.53125 1166.078125 C 2066.261719 1146.601562 2069.230469 1120.648438 2079.890625 1099.328125 C 2103.488281 1052.128906 2285.28125 1006.191406 2336.859375 995.871094 C 2364.339844 990.378906 2393.859375 1003.941406 2420.289062 1009.21875 C 2441.78125 1013.519531 2474.710938 1001.558594 2493.710938 1014.230469 C 2502.96875 1020.398438 2500.96875 1037.609375 2512.070312 1045.929688 C 2531.558594 1060.550781 2561.199219 1054.839844 2580.480469 1069.289062 C 2623.128906 1101.28125 2692.988281 1173.960938 2672.261719 1236.160156 C 2668.769531 1246.621094 2655.011719 1253.410156 2652.230469 1264.519531 C 2645.089844 1293.070312 2651.339844 1322.441406 2632.210938 1347.960938 C 2618.550781 1366.171875 2602.640625 1379.011719 2593.109375 1398.070312 C 2586.328125 1411.640625 2570.648438 1480.898438 2565.808594 1553.53125 C 2560.070312 1639.691406 2564.890625 1730.058594 2551.949219 1730.269531 C 2524.179688 1730.730469 2540.980469 1458.03125 2503.800781 1466.621094 C 2475.921875 1473.058594 2496.261719 1953.609375 2479.691406 1957.21875 C 2471.5 1959.011719 2456.691406 1866.480469 2455.328125 1519.828125 C 2455.300781 1510.851562 2458.878906 1480.410156 2446.988281 1476.441406 C 2439.339844 1473.890625 2437.25 1477.300781 2435.308594 1483.121094 C 2406.980469 1568.089844 2439.121094 1812.628906 2417.019531 1812.058594 C 2390.261719 1811.359375 2412.480469 1457.019531 2375.238281 1468.101562 C 2351.199219 1475.25 2362.710938 2002.816406 2336.859375 2005.402344 C 2311.320312 2007.957031 2320.070312 1560.441406 2315.960938 1545.308594 C 2310.070312 1523.609375 2295.851562 1535.511719 2293.46875 1548.191406 C 2283.808594 1599.859375 2284.289062 1832.160156 2266.78125 1830.191406 C 2243.089844 1827.53125 2260.289062 1583.710938 2255.089844 1531.511719 C 2253.921875 1519.660156 2222.539062 1526.539062 2220.050781 1531.511719 C 2213.320312 1544.96875 2213.269531 1561.761719 2206.699219 1574.890625 C 2181.96875 1624.359375 2167.941406 1498.648438 2164.988281 1489.789062 C 2150.160156 1445.289062 2101.578125 1470.320312 2101.578125 1393.011719 "/>
    </clipPath>
  </defs>
  <g transform="matrix(1, 0, 0, 1, -1.3873750178124737, 0.4546190568003112)">
    <path fill-rule="evenodd" fill-opacity="1" d="M 2067.552 1455.7 C 1987.532 1404.78 1954.14 1195.32 1958.68 1186.25 C 1967.41 1168.79 2011.43 1097.44 2022.09 1076.12 C 2045.68 1028.92 2227.49 982.978 2279.05 972.658 C 2306.53 967.168 2416.91 978.348 2435.91 991.018 C 2445.16 997.188 2503.39 1031.63 2522.68 1046.08 C 2565.32 1078.07 2594.733 1143.059 2593.699 1208.608 C 2593.142 1243.888 2579.023 1333.747 2569.483 1352.807 C 2562.713 1366.377 2551.51 1448.343 2546.68 1520.973 C 2540.93 1607.133 2565.87 1679.606 2525.529 1679.883 C 2497.766 1680.073 2483.18 1434.82 2445.99 1443.41 C 2418.13 1449.85 2410.376 1557.089 2417.771 1603.585 C 2425.849 1654.374 2361.596 1976.774 2313.217 1587.929 C 2312.108 1579.018 2266.429 1541.654 2250.877 1549.535 C 2205.647 1572.455 2216.001 1870.016 2163.238 1870.824 C 2107.938 1871.671 2099.171 1669.018 2079.911 1532.806" style="fill: rgb(175, 84, 197);"/>
    <g clip-path="url(#clip-56)" transform="matrix(1, 0, 0, 1, -57.798428, -23.213351)">
      <g clip-path="url(#clip-57)"/>
    </g>
    <g clip-path="url(#clip-58)" transform="matrix(1, 0, 0, 1, -57.798428, -23.213351)">
      <g clip-path="url(#clip-59)"/>
    </g>
    <g clip-path="url(#clip-60)" transform="matrix(1, 0, 0, 1, -57.798428, -23.213351)">
      <g clip-path="url(#clip-61)"/>
    </g>
  </g>
</svg>