<!-- Generated by SVGMaker - https://svgmaker.io -->
<!-- Prompt: now make him wink -->
<!-- Quality: low -->
<!-- Type: edit -->
<!-- Created: 2026-05-06T12:14:08.244Z -->
<svg version="1.1" xmlns="http://www.w3.org/2000/svg" style="display: block;" viewBox="0 0 2048 2048" width="1024" height="1024" preserveAspectRatio="none"><path transform="translate(0,0)" fill="rgb(103,48,48)" d="M 1428.71 132.398 C 1455.09 127.013 1492.19 156.743 1490.04 184.122 C 1488.29 206.451 1473.14 211.104 1455.31 218.757 C 1439.27 225.634 1424.56 232.094 1409.8 241.124 C 1388.49 254.743 1365.55 272.205 1347.34 289.787 C 1417.69 344.353 1457.36 443.785 1430.57 530.149 C 1428.2 537.771 1425.37 545.335 1422.58 552.81 C 1436.92 562.728 1445.05 570.951 1456.72 584.044 C 1491.46 623.03 1499.62 667.265 1496.34 717.994 C 1508.2 723.799 1521.01 732.419 1531.61 740.384 C 1648.74 828.394 1687.55 976.633 1628.84 1110.95 C 1636.97 1109.78 1644.87 1108.66 1653.07 1108.23 C 1711.38 1105.14 1766.41 1141.58 1780.94 1198.99 C 1789.18 1232 1784.04 1266.92 1766.65 1296.16 C 1742.54 1336.29 1699.98 1359.38 1653.47 1360.14 C 1627.4 1360.57 1605.74 1352.85 1583.69 1339.51 C 1572.03 1353.88 1562.2 1364.22 1547.15 1374.85 C 1543.83 1382.57 1536.46 1423.61 1533.89 1435.02 C 1521.76 1488.81 1511.14 1543.47 1498.4 1597.17 C 1490.3 1631.29 1481.47 1670.35 1467.97 1702.71 C 1461.92 1717.42 1454.08 1731.32 1444.63 1744.11 C 1392.98 1814.43 1262.83 1846.56 1179.32 1858.98 C 1035.88 1880.3 865.934 1863.97 729.871 1813.28 C 707.094 1804.8 677.132 1791.5 658.076 1777.3 C 635.584 1760.71 617.522 1738.83 605.481 1713.61 C 588.146 1677.31 575.67 1614.15 567.168 1573.39 C 552.852 1504.79 539.919 1435.91 528.375 1366.8 C 525.308 1347.54 523.535 1328.93 520.685 1310.02 C 472.14 1289.92 441.691 1262.89 414.052 1218.45 C 413.613 1252.48 427.854 1298.61 404.286 1327.12 C 385.632 1349.68 341.888 1353.02 319.96 1332.91 C 299.799 1314.42 300.484 1284.13 298.915 1258.69 L 295.939 1210.46 L 295.803 1199.55 C 264.342 1187.58 241.542 1171.33 224.722 1141.26 C 209.284 1113.28 205.553 1080.32 214.345 1049.6 C 226.006 1009.08 249.346 990.836 284.214 971.783 C 279.91 924.144 276.717 874.764 272.626 826.699 C 262.464 818.177 249.486 809.826 238.775 800.485 C 167.986 743.314 169.088 661.54 164.245 578.961 C 162.813 554.534 156.787 494.348 162.394 472.001 C 163.992 465.539 167.178 459.578 171.663 454.659 C 179.497 446.075 190.46 441.01 202.075 440.607 C 253.938 438.445 249.158 498.299 253.493 532.398 C 255.438 547.691 257.192 629.56 266.773 637.065 C 289.59 654.94 283.049 597.214 282.561 591.029 C 280.831 568.864 278.903 546.714 276.779 524.583 C 275.304 508.806 272.827 490.992 273.994 475.363 C 275.45 455.842 293.435 441.115 311.845 438.507 C 323.877 436.817 336.089 439.963 345.807 447.257 C 364.579 461.47 364.337 489.477 366.387 511.006 L 373.026 582.662 C 374.163 596.083 374.985 609.638 376.613 622.944 C 377.445 629.738 382.17 635.087 389.336 632.491 C 393.812 630.869 395.397 626.884 397.56 623.076 C 397.939 612.636 395.87 601.8 395.624 591.035 C 394.727 551.895 382.78 505.039 386.463 466.851 C 391.838 432.236 437.581 416.661 460.4 442.715 C 475.798 460.297 477.804 506.073 480.161 529.533 C 484.232 570.048 489.693 615.32 487.945 655.691 C 485.462 713.061 453.657 770.784 409.458 806.583 C 403.433 811.511 396.375 816.823 390.756 822.091 L 390.136 822.683 C 391.761 831.582 393.492 864.746 394.22 875.703 C 396.38 908.216 401.384 945.55 402.161 977.67 C 424.706 994.912 429.647 997.098 447.49 1020.79 C 400.379 891.519 478.341 724.872 591.929 654.502 C 607.29 644.985 622.554 638.817 639.231 632.265 C 653.385 588.926 677.471 549.495 709.567 517.116 C 762.342 464.148 847.394 424.128 922.506 424.163 C 944.621 269.125 1119.57 167.932 1259.42 247.327 C 1297 202.304 1369.11 139.11 1428.71 132.398 z"></path><path transform="translate(0,0)" fill="rgb(254,254,245)" d="M 664.952 659.244 C 673.177 624.674 698.888 577.511 722.179 550.156 C 771.75 491.935 847.16 462.027 921.766 455.393 L 921.792 456.747 C 922.177 471.503 925.323 486.646 929.323 501.027 C 961.676 617.34 1086.51 682.163 1201.14 680.296 C 1277.08 679.059 1338.61 655.541 1391.39 599.469 C 1397.1 592.582 1401.06 587.363 1406.16 580.015 C 1434.38 601.367 1459.94 633.571 1464.51 669.406 C 1467.01 688.992 1465.93 720.544 1465.92 741.264 C 1504.92 748.987 1555.57 800.938 1577.42 833.802 C 1618.1 894.09 1633.08 968.099 1619.07 1039.46 C 1615.07 1059.22 1599.27 1113.87 1585.42 1126.67 C 1569.11 1139.3 1561.05 1148.02 1548.81 1164.31 C 1539.35 1176.9 1533.95 1205.49 1525.9 1213.49 C 1503.65 1235.62 1459.86 1252.97 1429.28 1259.03 C 1419.4 1260.99 1411.03 1260.88 1402.33 1262.68 L 1403.87 1263.33 L 1403.64 1264.3 C 1396.06 1264.36 1378.43 1268.56 1373.2 1262.92 C 1361.19 1261.14 1351.05 1260.89 1338.18 1258.75 C 1321.66 1255.12 1286.17 1244.77 1273.59 1235.51 C 1241.94 1212.24 1247.91 1221.66 1218.31 1243.87 C 1213.74 1247.3 1201.57 1254.66 1197.74 1258.43 C 1195.85 1265.77 1145.58 1285.19 1134.61 1281.44 C 1082.49 1288.6 1035.32 1282.29 990.88 1252.85 C 979.739 1245.46 969.296 1234.46 958.509 1228.09 C 956.135 1227.96 949.376 1227.55 947.397 1228.19 C 936.162 1231.85 923.199 1241.71 913.731 1248.46 C 911.424 1257.33 870.41 1267.5 860.622 1268.25 L 859.326 1267.02 C 807.543 1270.68 777.963 1262.28 736.283 1230.78 C 729.791 1231.02 713.554 1214.89 714.073 1208.65 C 711.601 1204.43 701.317 1190.82 697.819 1185.89 C 666.364 1185.94 647.361 1189.74 614.617 1180.3 C 564.814 1165.94 526.461 1126.97 502.641 1081.97 C 474.539 1028.88 460.142 963.447 468.05 903.634 C 470.743 883.27 475.607 866.625 481.431 847.237 C 479.68 840.785 487.576 820.837 492.52 819.293 C 500.928 805.722 506.279 791.724 516.495 776.732 C 554.297 721.256 596.84 673.717 664.952 659.244 z"></path><path transform="translate(0,0)" fill="rgb(237,231,213)" d="M 1406.16 580.015 C 1434.38 601.367 1459.94 633.571 1464.51 669.406 C 1467.01 688.992 1465.93 720.544 1465.92 741.264 C 1504.92 748.987 1555.57 800.938 1577.42 833.802 C 1618.1 894.09 1633.08 968.099 1619.07 1039.46 C 1615.07 1059.22 1599.27 1113.87 1585.42 1126.67 C 1569.11 1139.3 1561.05 1148.02 1548.81 1164.31 C 1539.35 1176.9 1533.95 1205.49 1525.9 1213.49 C 1503.65 1235.62 1459.86 1252.97 1429.28 1259.03 C 1419.4 1260.99 1411.03 1260.88 1402.33 1262.68 L 1403.87 1263.33 L 1403.64 1264.3 C 1396.06 1264.36 1378.43 1268.56 1373.2 1262.92 C 1361.19 1261.14 1351.05 1260.89 1338.18 1258.75 C 1344.16 1254.97 1348.78 1253.72 1355.64 1252.8 C 1553.07 1226.21 1642.25 984.222 1527.72 827.716 C 1514.26 809.328 1500.76 796.179 1485.01 779.992 C 1469.67 764.232 1442.54 751.098 1430.08 735.18 C 1429 702.797 1431.98 657.604 1414.93 629.348 C 1409.07 619.636 1398.9 609.926 1392.04 600.386 L 1391.39 599.469 C 1397.1 592.582 1401.06 587.363 1406.16 580.015 z"></path><path transform="translate(0,0)" fill="rgb(89,37,38)" d="M 1373.2 1262.92 C 1382.67 1262.91 1392.95 1263.1 1402.33 1262.68 L 1403.87 1263.33 L 1403.64 1264.3 C 1396.06 1264.36 1378.43 1268.56 1373.2 1262.92 z"></path><path transform="translate(0,0)" fill="rgb(47,17,19)" d="M 1197.74 1258.43 C 1195.85 1265.77 1145.58 1285.19 1134.61 1281.44 C 1159.07 1276.77 1175.77 1269.56 1197.74 1258.43 z"></path><path transform="translate(0,0)" fill="rgb(47,17,19)" d="M 913.731 1248.46 C 911.424 1257.33 870.41 1267.5 860.622 1268.25 L 859.326 1267.02 C 882.599 1262.2 892.504 1259.02 913.731 1248.46 z"></path><path transform="translate(0,0)" fill="rgb(47,17,19)" d="M 736.283 1230.78 C 729.791 1231.02 713.554 1214.89 714.073 1208.65 C 721.633 1216.66 728.104 1223.26 736.283 1230.78 z"></path><path transform="translate(0,0)" fill="rgb(47,17,19)" d="M 481.431 847.237 C 479.68 840.785 487.576 820.837 492.52 819.293 C 489.778 828.162 484.702 838.108 481.431 847.237 z"></path><path transform="translate(0,0)" fill="rgb(103,48,48)" d="M 929.699 1112.1 C 924.98 1101.59 922.351 1090.25 921.958 1078.73 C 921.452 1065.05 923.937 1036.53 942.081 1035.74 C 971.108 1034.48 1000.88 1039.69 1030.05 1040.14 C 1039.36 1040.31 1049.24 1040.46 1058.51 1041.16 C 1076.38 1042.51 1095.7 1037.25 1100.65 1059.75 C 1104.21 1079.42 1098.64 1108.8 1086.58 1124.91 C 1078.51 1139.87 1061.77 1153.49 1046.28 1160.16 C 1024.77 1169.48 1000.42 1169.79 978.671 1161.02 C 956.349 1152.09 938.654 1134.42 929.699 1112.1 z"></path><path transform="translate(0,0)" fill="rgb(47,17,19)" d="M 929.699 1112.1 C 924.98 1101.59 922.351 1090.25 921.958 1078.73 C 921.452 1065.05 923.937 1036.53 942.081 1035.74 C 971.108 1034.48 1000.88 1039.69 1030.05 1040.14 C 1029.74 1040.19 1029.43 1040.25 1029.13 1040.31 C 1008.24 1041.84 986.614 1038.92 965.577 1038.94 C 954.927 1038.95 937.463 1034.33 930.923 1045.23 C 920.311 1062.9 925.239 1085.6 929.011 1104.6 C 929.682 1107.95 930.627 1108.89 929.699 1112.1 z"></path><path transform="translate(0,0)" fill="rgb(47,17,19)" d="M 1100.65 1059.75 C 1104.21 1079.42 1098.64 1108.8 1086.58 1124.91 L 1086.1 1124.31 C 1086.03 1123.62 1093.3 1106.05 1094.61 1102.15 C 1099.54 1087.55 1097.7 1074.14 1100.65 1059.75 z"></path><path transform="translate(0,0)" fill="rgb(237,103,116)" d="M 973.088 1090.04 C 976.861 1083.11 1004.66 1086.49 1012.73 1086.19 C 1016.63 1086.04 1033.36 1086.52 1036.06 1087.81 L 1035.97 1089.31 C 1039 1089.83 1038.71 1089.98 1041.75 1089.79 L 1040.42 1088.44 C 1044.31 1086.76 1052.76 1088.36 1055.68 1091.7 L 1055.81 1092.28 C 1069.18 1103.57 1064.38 1115.68 1053 1126.77 C 1030.28 1148.89 990.855 1146.21 969.436 1123.66 C 964.757 1118.74 961.636 1112.07 962.385 1105.22 C 963.054 1096.83 967.231 1094.91 973.088 1090.04 z"></path><path transform="translate(0,0)" fill="rgb(47,17,19)" d="M 973.088 1090.04 C 976.861 1083.11 1004.66 1086.49 1012.73 1086.19 C 1016.63 1086.04 1033.36 1086.52 1036.06 1087.81 L 1035.97 1089.31 C 1018.18 1088.86 989.588 1086.7 973.088 1090.04 z"></path><path transform="translate(0,0)" fill="rgb(47,17,19)" d="M 1041.75 1089.79 L 1040.42 1088.44 C 1044.31 1086.76 1052.76 1088.36 1055.68 1091.7 L 1055.81 1092.28 C 1051.99 1091.96 1048.93 1090.12 1041.75 1089.79 z"></path><path transform="translate(0,0)" fill="rgb(103,48,48)" d="M 789.517 916.669 C 811.286 913.965 840.537 922.264 852.188 942.174 C 870.632 966.415 872.041 997.293 855.153 1022.79 C 850.383 1034.22 833.368 1044.98 822.119 1049.11 C 804.982 1055.57 785.938 1054.7 769.468 1046.68 C 753.848 1039.2 742.474 1027.7 736.545 1011.22 C 735.275 1008.11 733.982 1004.27 733.275 1000.96 C 729.107 982.119 732.618 962.391 743.03 946.141 C 754.436 928.579 769.688 920.867 789.517 916.669 z"></path><path transform="translate(0,0)" fill="rgb(47,17,19)" d="M 736.545 1011.22 C 735.275 1008.11 733.982 1004.27 733.275 1000.96 C 729.107 982.119 732.618 962.391 743.03 946.141 C 754.436 928.579 769.688 920.867 789.517 916.669 L 795.853 917.484 C 756.1 926.154 732.901 946.808 734.208 991.068 C 734.39 997.25 738.279 1005.17 736.545 1011.22 z"></path><path transform="translate(0,0)" fill="rgb(47,17,19)" d="M 852.188 942.174 C 870.632 966.415 872.041 997.293 855.153 1022.79 C 855.111 1019.53 857.61 1014.53 858.796 1010.98 C 862.646 999.487 864.999 991.097 864.32 978.929 C 863.554 965.188 856.866 955.671 852.268 943.533 C 852.241 943.08 852.215 942.627 852.188 942.174 z"></path><path transform="translate(0,0)" fill="rgb(254,254,245)" d="M 800.711 946.942 C 811.304 943.427 822.743 949.16 826.267 959.751 C 829.791 970.342 824.067 981.785 813.479 985.318 C 802.879 988.855 791.419 983.123 787.891 972.52 C 784.363 961.916 790.104 950.461 800.711 946.942 z"></path><path transform="translate(0,0)" fill="rgb(250,113,125)" d="M 1320.06 1089 C 1329.81 1075.87 1344.47 1067.26 1360.68 1065.13 C 1376.89 1063 1393.27 1067.54 1406.08 1077.71 C 1429.05 1095.95 1435.58 1128.06 1421.57 1153.83 C 1409.88 1175.33 1386.35 1187.65 1362.01 1185.01 C 1340.5 1182.67 1321.88 1168.99 1313.21 1149.16 C 1304.55 1129.33 1307.16 1106.38 1320.06 1089 z"></path><path transform="translate(0,0)" fill="rgb(247,46,59)" d="M 1320.06 1089 C 1319.5 1093.71 1314.76 1100.37 1312.99 1105.3 C 1301.09 1138.5 1318.08 1172.4 1352.35 1181.27 C 1355.98 1182.23 1359.68 1182.92 1363.42 1183.34 L 1363.61 1184.32 L 1362.01 1185.01 C 1340.5 1182.67 1321.88 1168.99 1313.21 1149.16 C 1304.55 1129.33 1307.16 1106.38 1320.06 1089 z"></path><path transform="translate(0,0)" fill="rgb(247,46,59)" d="M 1406.08 1077.71 C 1429.05 1095.95 1435.58 1128.06 1421.57 1153.83 C 1419.73 1148 1426.36 1136.26 1427.24 1129.58 C 1427.9 1124.53 1427.2 1118.75 1426.26 1113.76 C 1422.55 1094.08 1407.22 1083.23 1406.08 1077.71 z"></path><path transform="translate(0,0)" fill="rgb(247,46,59)" d="M 611.516 989.663 C 642.344 984.773 671.316 1005.75 676.289 1036.57 C 681.263 1067.38 660.362 1096.41 629.561 1101.47 C 598.641 1106.54 569.477 1085.55 564.484 1054.61 C 559.492 1023.68 580.569 994.572 611.516 989.663 z"></path><path transform="translate(0,0)" fill="rgb(250,113,125)" d="M 606.635 993.061 C 635.397 985.607 664.817 1002.62 672.703 1031.27 C 680.59 1059.91 664.024 1089.58 635.5 1097.9 C 616.662 1103.39 596.326 1098.31 582.287 1084.6 C 568.248 1070.89 562.684 1050.68 567.728 1031.72 C 572.772 1012.76 587.641 997.984 606.635 993.061 z"></path><path transform="translate(0,0)" fill="rgb(249,116,75)" d="M 839.814 607.204 C 847.867 606.961 855.429 608.215 862.826 612.916 C 880.299 625.225 903.655 642.117 917.21 658.736 C 933.146 678.274 928.441 701.47 902.855 707.473 C 896.04 706.406 890.403 704.594 884.353 700.392 C 864.476 685.502 838.564 668.417 822.21 649.878 C 805.564 631.008 817.096 611.518 839.814 607.204 z"></path><path transform="translate(0,0)" fill="rgb(103,48,48)" d="M 1202.14 981.673 C 1203.5 980.841 1204.89 980.042 1206.29 979.279 C 1233.48 964.237 1263.74 956.649 1294.24 965.511 C 1310.31 969.915 1339.95 984.949 1333.07 1004.21 C 1324.38 1028.52 1300.78 1013.69 1288.52 1004.45 C 1270.78 991.079 1247.03 995.895 1228.41 1003.95 C 1222.04 1006.73 1215.91 1010.03 1210.09 1013.83 C 1197.7 1021.91 1175.62 1046.45 1164.94 1024.57 C 1157.05 1008.41 1190.75 986.587 1202.14 981.673 z"></path><path transform="translate(0,0)" fill="rgb(47,17,19)" d="M 1202.14 981.673 C 1203.5 980.841 1204.89 980.042 1206.29 979.279 C 1233.48 964.237 1263.74 956.649 1294.24 965.511 C 1286.86 967.804 1269.84 961.055 1257.93 963.778 C 1249.02 965.814 1242.53 967.196 1233.28 970.291 C 1226.34 972.612 1207.01 981.609 1202.14 981.673 z"></path><path transform="translate(0,0)" fill="rgb(249,116,75)" d="M 1410.27 859.287 C 1436.04 859.208 1458.76 883.468 1477.76 898.546 C 1498.93 915.348 1509.77 944.787 1475.7 954.139 C 1453.44 955.164 1413.82 917.847 1397.16 902.799 C 1380.99 888.195 1385.61 864.147 1410.27 859.287 z"></path><path transform="translate(0,0)" fill="rgb(177,191,215)" d="M 1028.5 787.991 C 1052.08 787.089 1076.37 811.693 1094.38 824.933 C 1114.05 839.399 1131.22 867.95 1097.74 878.687 C 1070.37 883.8 1052.17 859.552 1031.37 845.17 C 1009.78 830.235 993.355 799.288 1028.5 787.991 z"></path><path transform="translate(0,0)" fill="rgb(250,113,125)" d="M 719.767 753.491 C 735.857 757.363 740.086 761.359 744.608 776.908 C 743.755 780.204 742.455 783.878 741.378 787.161 C 731.568 801.563 671.675 837.794 652.002 843.684 C 650.594 844.105 644.718 844.066 642.888 844.048 L 642.286 844.047 C 599.703 830.941 643.566 796.498 662.49 786.426 C 682.597 775.724 695.714 759.724 719.767 753.491 z"></path><path transform="translate(0,0)" fill="rgb(247,46,59)" d="M 739.359 785.113 L 741.378 787.161 C 731.568 801.563 671.675 837.794 652.002 843.684 C 650.594 844.105 644.718 844.066 642.888 844.048 L 642.286 844.047 L 645.647 842.259 L 652.112 842.041 C 661.027 838.875 666.984 835.971 674.981 830.759 L 683.032 826.148 C 688.913 823.742 722.88 802.416 727.123 797.662 C 733.489 792.23 734.768 794.424 739.359 785.113 z"></path><path transform="translate(0,0)" fill="rgb(250,113,125)" d="M 1238.49 769.463 C 1258.56 753.475 1309.75 718.467 1322.07 760.414 L 1322.49 761.819 C 1320.39 769.184 1319.52 772.892 1314.42 778.911 C 1310.56 783.281 1309.77 783.982 1304.92 787.214 C 1293.45 795.832 1281.4 803.301 1269.08 810.618 C 1267.77 811.492 1266.24 812.599 1264.88 813.314 C 1259.11 816.68 1250.67 822.027 1244.17 823.104 L 1243.67 823.527 C 1236.77 825.554 1234.58 825.987 1227.52 825.372 C 1214.38 824.228 1208.03 813.181 1210.74 800.571 C 1213.79 786.317 1226.18 777.227 1238.02 769.782 L 1238.49 769.463 z"></path><path transform="translate(0,0)" fill="rgb(247,46,59)" d="M 1238.49 769.463 C 1258.56 753.475 1309.75 718.467 1322.07 760.414 L 1322.49 761.819 C 1320.39 769.184 1319.52 772.892 1314.42 778.911 L 1313.76 777.219 C 1316.03 772.241 1320.59 762.86 1318.8 757.653 C 1307.84 725.727 1268.05 751.208 1250.9 763.062 C 1247.59 765.349 1242.05 769.54 1238.49 769.463 z"></path><path transform="translate(0,0)" fill="rgb(247,46,59)" d="M 1243.67 823.527 C 1236.77 825.554 1234.58 825.987 1227.52 825.372 C 1214.38 824.228 1208.03 813.181 1210.74 800.571 C 1213.79 786.317 1226.18 777.227 1238.02 769.782 C 1235.55 774.811 1225.84 780.247 1221.88 785.172 C 1211.7 797.82 1203.95 810.401 1220.85 820.697 C 1231.88 827.415 1237.16 820.756 1243.67 823.527 z"></path><path transform="translate(0,0)" fill="rgb(247,46,59)" d="M 1269.08 810.618 L 1269.71 808.534 C 1273.93 805.184 1300.58 787.246 1304.92 787.214 C 1293.45 795.832 1281.4 803.301 1269.08 810.618 z"></path><path transform="translate(0,0)" fill="rgb(247,46,59)" d="M 1244.17 823.104 L 1245 820.808 C 1252.41 818.265 1260.16 812.138 1264.88 813.314 C 1259.11 816.68 1250.67 822.027 1244.17 823.104 z"></path><path transform="translate(0,0)" fill="rgb(237,103,116)" d="M 557.726 1370.61 L 558.748 1367.51 C 561.489 1368.39 560.625 1368.16 563.023 1370.19 C 569.747 1373.35 575.886 1382.09 582.299 1386.59 C 617.281 1411.13 661.857 1421.3 703.694 1411.09 C 707.839 1410.08 722.282 1405.99 724.93 1408.1 C 729.869 1409.93 748.928 1428.04 755.459 1432.35 C 814.802 1471.5 882.186 1474.28 945.463 1443.26 C 951.227 1440.44 957.927 1436.05 963.491 1433.53 C 972.08 1439.24 980.148 1446.24 988.358 1451.59 C 1024.75 1475.29 1068.42 1484.61 1111.48 1482.12 C 1112.7 1482.05 1112.8 1483.06 1113.02 1483.83 C 1115.28 1483.98 1115.41 1483.83 1117.7 1483.5 L 1115.16 1482.52 L 1115.92 1481.69 C 1122.39 1481 1128.78 1479.8 1135.14 1478.47 C 1144.45 1476.53 1153.67 1474.19 1162.72 1471.23 C 1171.75 1468.27 1180.59 1464.73 1189.49 1461.43 C 1190.34 1461.73 1191.18 1462.04 1192.03 1462.34 C 1193.25 1462 1195.67 1460.49 1196.91 1459.79 L 1197.18 1457.84 C 1200.42 1453.76 1207.93 1452.31 1213.12 1450.83 C 1215.95 1449.83 1219.08 1447.39 1221.64 1445.6 L 1221.06 1444.48 C 1224.44 1443.47 1235.78 1449.15 1239.63 1450.85 C 1256.83 1458.46 1273.57 1461.92 1292.15 1464.15 L 1293.36 1465.21 L 1293.07 1466.32 C 1298.49 1467.94 1323.15 1467.94 1327.97 1466.32 L 1327.7 1465.33 L 1328.54 1464.44 C 1337.57 1463.12 1357.35 1459.94 1366.72 1457.07 C 1379.52 1453.14 1399.52 1444.24 1412.1 1438.78 C 1412.69 1439 1413.28 1439.22 1413.87 1439.44 C 1434.97 1429.76 1458.23 1407.95 1472.46 1389.59 L 1472.97 1388.66 C 1496.36 1391.86 1491.08 1388.35 1509.99 1387.22 L 1510.91 1388.53 L 1512.57 1391.34 C 1513.7 1396.77 1495.84 1478.65 1492.56 1491.62 C 1473.54 1566.78 1465.38 1653.29 1425.83 1721.12 C 1424.6 1723.24 1422.12 1727.01 1419.75 1726.9 C 1405.09 1742.44 1394.8 1753.14 1376.12 1764.39 C 1367.8 1769.4 1357.06 1774.37 1349.42 1779.09 C 1348.55 1781.88 1348.84 1781.14 1345.95 1782.52 C 1298.78 1805.14 1247.21 1818.77 1195.85 1827.89 C 1190.05 1828.92 1175.43 1832.52 1170.8 1829.38 L 1161.1 1830.46 C 1151.99 1831.72 1136.87 1833.7 1127.58 1833.83 C 1096.53 1836.58 1057.42 1837.86 1026.46 1836.27 C 1015.97 1836.13 1005.45 1836.09 994.977 1835.5 C 958.972 1833.45 930.067 1830.27 894.674 1825.2 C 884.446 1823.4 874.227 1821.55 864.019 1819.64 C 826.945 1812.14 790.402 1802.22 754.625 1789.95 C 714.988 1774.5 668.918 1757.36 644.424 1720.51 C 641.161 1715.6 637.308 1708.86 633.725 1704.44 L 632.664 1703.16 L 631.315 1702.99 C 626.157 1693.82 618.321 1671.42 615.677 1662.27 C 607.674 1634.57 553.639 1378.99 557.726 1370.61 z"></path><path transform="translate(0,0)" fill="rgb(250,113,125)" d="M 1221.51 1480.57 C 1265.12 1499.14 1311.45 1500.59 1356.39 1486.3 C 1346.1 1523.48 1338.01 1559.86 1328.56 1597.15 C 1310.58 1666.56 1293.7 1736.26 1277.92 1806.2 C 1303.22 1798.9 1325.41 1789.68 1349.42 1779.09 C 1348.55 1781.88 1348.84 1781.14 1345.95 1782.52 C 1298.78 1805.14 1247.21 1818.77 1195.85 1827.89 C 1190.05 1828.92 1175.43 1832.52 1170.8 1829.38 L 1161.1 1830.46 C 1156.49 1811.13 1215.61 1520.83 1221.51 1480.57 z"></path><path transform="translate(0,0)" fill="rgb(47,17,19)" d="M 1349.42 1779.09 C 1348.55 1781.88 1348.84 1781.14 1345.95 1782.52 C 1298.78 1805.14 1247.21 1818.77 1195.85 1827.89 C 1190.05 1828.92 1175.43 1832.52 1170.8 1829.38 C 1210.22 1823.62 1239.68 1817.09 1277.92 1806.2 C 1303.22 1798.9 1325.41 1789.68 1349.42 1779.09 z"></path><path transform="translate(0,0)" fill="rgb(250,113,125)" d="M 1188.24 1493.78 C 1180.51 1538.24 1172.29 1582.6 1163.56 1626.87 L 1143.94 1737.38 C 1138.57 1767.27 1131.47 1804.05 1127.58 1833.83 C 1096.53 1836.58 1057.42 1837.86 1026.46 1836.27 C 1026.1 1827.12 1027.45 1810.44 1027.89 1800.71 L 1030.43 1737.94 L 1039.85 1508.73 C 1072.74 1518.87 1115.41 1518.27 1148.62 1509.58 C 1160.07 1506.58 1177.43 1498.85 1188.24 1493.78 z"></path><path transform="translate(0,0)" fill="rgb(250,113,125)" d="M 976.393 1464.32 C 978.923 1466.73 981.595 1469.86 984.808 1470.73 C 985.414 1469.09 985.199 1469.96 985.422 1468.13 C 992.034 1471.97 1001.38 1481.14 1007.65 1486.4 C 1007.64 1515.5 1005.73 1545.37 1004.85 1574.5 L 999.872 1762.69 C 999.685 1772.84 1000.25 1831.12 997.532 1834.59 L 994.977 1835.5 C 958.972 1833.45 930.067 1830.27 894.674 1825.2 C 891.7 1749.62 889.192 1674.03 887.15 1598.42 C 886.244 1565.74 884.147 1529.8 884.151 1497.57 C 924.272 1491.28 942.79 1485.02 976.393 1464.32 z"></path><path transform="translate(0,0)" fill="rgb(250,113,125)" d="M 715.909 1442.14 C 735.365 1457.54 757.051 1475.67 780.555 1483.84 C 801.605 1491.16 829.601 1498.64 851.764 1499.48 C 853.918 1565.16 856.477 1630.83 859.44 1696.48 C 860.242 1714.17 866.687 1809.55 864.019 1819.64 C 826.945 1812.14 790.402 1802.22 754.625 1789.95 C 753.892 1768.44 748.932 1741.44 745.757 1719.88 C 744.815 1713.49 744.776 1704.41 743.992 1697.42 L 729.11 1564.14 C 725.611 1535.82 722.397 1507.46 719.469 1479.06 C 718.361 1468.22 716.26 1452.58 715.909 1442.14 z"></path><path transform="translate(0,0)" fill="rgb(29,11,12)" d="M 724.93 1408.1 C 729.869 1409.93 748.928 1428.04 755.459 1432.35 C 814.802 1471.5 882.186 1474.28 945.463 1443.26 C 951.227 1440.44 957.927 1436.05 963.491 1433.53 C 972.08 1439.24 980.148 1446.24 988.358 1451.59 C 1024.75 1475.29 1068.42 1484.61 1111.48 1482.12 C 1112.7 1482.05 1112.8 1483.06 1113.02 1483.83 C 1051.06 1486.74 1011.67 1474.22 963.934 1435.63 C 884.926 1479.58 807.669 1479.34 735.833 1419.47 C 732.087 1416.35 727.304 1412.33 724.93 1408.1 z"></path><path transform="translate(0,0)" fill="rgb(29,11,12)" d="M 1512.57 1391.34 C 1513.7 1396.77 1495.84 1478.65 1492.56 1491.62 C 1473.54 1566.78 1465.38 1653.29 1425.83 1721.12 C 1424.6 1723.24 1422.12 1727.01 1419.75 1726.9 C 1421.12 1722.87 1430.74 1709.85 1433.45 1703.78 C 1466.54 1629.56 1476.1 1545.13 1495.47 1466.72 C 1499.1 1452.02 1506.93 1402.22 1512.57 1391.34 z"></path><path transform="translate(0,0)" fill="rgb(47,17,19)" d="M 632.664 1703.16 L 631.315 1702.99 C 626.157 1693.82 618.321 1671.42 615.677 1662.27 C 607.674 1634.57 553.639 1378.99 557.726 1370.61 C 560.694 1378.03 567.194 1416.98 569.098 1427.1 C 577.259 1471.5 585.821 1515.82 594.783 1560.06 C 603.634 1601.88 611.548 1646.65 626.407 1686.76 C 628.276 1691.81 631.462 1698.16 632.664 1703.16 z"></path><path transform="translate(0,0)" fill="rgb(29,11,12)" d="M 563.023 1370.19 C 569.747 1373.35 575.886 1382.09 582.299 1386.59 C 617.281 1411.13 661.857 1421.3 703.694 1411.09 C 707.839 1410.08 722.282 1405.99 724.93 1408.1 C 696.438 1416.49 674.307 1419.58 644.528 1414.9 C 617.31 1410.63 579.177 1393.27 563.023 1370.19 z"></path><path transform="translate(0,0)" fill="rgb(29,11,12)" d="M 1327.97 1466.32 L 1327.7 1465.33 L 1328.54 1464.44 C 1337.57 1463.12 1357.35 1459.94 1366.72 1457.07 C 1379.52 1453.14 1399.52 1444.24 1412.1 1438.78 C 1412.69 1439 1413.28 1439.22 1413.87 1439.44 C 1389.66 1452.74 1355.8 1464.92 1327.97 1466.32 z"></path><path transform="translate(0,0)" fill="rgb(47,17,19)" d="M 1221.64 1445.6 L 1221.06 1444.48 C 1224.44 1443.47 1235.78 1449.15 1239.63 1450.85 C 1256.83 1458.46 1273.57 1461.92 1292.15 1464.15 L 1293.36 1465.21 L 1293.07 1466.32 C 1268.08 1465.34 1244.02 1455.83 1221.64 1445.6 z"></path><path transform="translate(0,0)" fill="rgb(29,11,12)" d="M 1117.7 1483.5 L 1115.16 1482.52 L 1115.92 1481.69 C 1122.39 1481 1128.78 1479.8 1135.14 1478.47 C 1144.45 1476.53 1153.67 1474.19 1162.72 1471.23 C 1171.75 1468.27 1180.59 1464.73 1189.49 1461.43 C 1190.34 1461.73 1191.18 1462.04 1192.03 1462.34 C 1169.45 1472.24 1142.41 1481.69 1117.7 1483.5 z"></path><path transform="translate(0,0)" fill="rgb(29,11,12)" d="M 1472.46 1389.59 L 1472.97 1388.66 C 1496.36 1391.86 1491.08 1388.35 1509.99 1387.22 L 1510.91 1388.53 C 1499.78 1391.22 1483.14 1394.71 1472.46 1389.59 z"></path><path transform="translate(0,0)" fill="rgb(47,17,19)" d="M 1196.91 1459.79 L 1197.18 1457.84 C 1200.42 1453.76 1207.93 1452.31 1213.12 1450.83 C 1207.55 1454.63 1202.93 1456.79 1196.91 1459.79 z"></path><path transform="translate(0,0)" fill="rgb(250,113,125)" d="M 462.748 1077.81 C 463.048 1075.18 462.498 1069.41 462.318 1066.51 L 463.013 1066.46 L 465.727 1072.62 C 467.469 1073.62 473.156 1085.85 473.677 1088.37 C 476.166 1100.41 506.901 1137.98 508.419 1144.93 C 513.148 1153.07 533.516 1171.39 541.743 1176.77 L 543.319 1175.85 C 577.353 1198.3 611.319 1212.47 652.984 1215.13 C 658.274 1215.47 674.281 1212.7 676.163 1216.86 L 682.062 1216.41 C 686.554 1219.35 692.805 1227.89 695.821 1232.43 L 696.014 1234.78 C 700.29 1241.02 719.244 1258.85 726.081 1262.1 C 731.355 1262.58 751.707 1275.46 758.831 1278.82 C 795.794 1296.3 837.555 1301.27 877.49 1292.2 C 890.53 1289.24 901.732 1281.62 915.254 1280.84 C 923.841 1278.45 942.756 1265.81 950.292 1260.54 C 955.523 1265.06 962.979 1271.75 969.254 1274.39 C 974.474 1274.47 990.697 1287.14 998.682 1290.59 C 1023.21 1301.2 1046.1 1308.04 1072.51 1312.34 C 1080.98 1313.72 1107.61 1311.14 1112.03 1314.7 C 1112.82 1314.75 1114.8 1314.54 1115.68 1314.47 L 1113.48 1313.54 C 1114.91 1312.27 1134.17 1309.4 1136.98 1309.4 C 1148.42 1309.4 1188.02 1291.42 1195.28 1292.85 C 1213.35 1287.34 1233.44 1269.18 1249 1258.67 C 1249.91 1258.05 1251.93 1257.93 1252.96 1257.85 C 1253.43 1257.91 1253.89 1257.96 1254.35 1258.03 C 1260.22 1258.92 1281.61 1270.89 1289.22 1273.93 C 1331.16 1290.66 1385.33 1293.88 1429.47 1286.03 C 1449.07 1282.55 1474.75 1274.62 1493.1 1266.49 C 1496.47 1264.99 1504.9 1259.93 1507.87 1261.4 C 1514.25 1258.65 1524.12 1250.63 1529.31 1249.81 L 1530.51 1252.67 L 1532.36 1251.94 C 1532.05 1251.34 1536.11 1268.43 1536.28 1269.23 C 1540.15 1287.65 1549.64 1301 1561.02 1315.6 C 1561.86 1316.7 1561.6 1316.48 1561.93 1318.17 C 1559.13 1326.6 1531.76 1351.91 1521.05 1356.37 C 1505.52 1362.86 1500.95 1363.27 1485.06 1362.44 L 1483.22 1363.59 C 1475.36 1364.11 1470.08 1360.9 1462.76 1357.72 C 1455.63 1362.9 1445.89 1376.69 1439.06 1383.55 C 1426.51 1396.16 1413.14 1405.72 1398.26 1415.3 L 1398.94 1416.63 C 1378.33 1427.29 1358.95 1436.21 1335.36 1438.4 C 1331.13 1438.79 1325.24 1440 1321.77 1437.22 C 1295.21 1435.95 1274.37 1436.2 1249.2 1424.72 C 1239.47 1420.28 1228.95 1415.04 1219.09 1411.24 C 1212.65 1414.16 1196.53 1425.84 1189.41 1430.43 L 1189.9 1431.63 C 1173.66 1441.9 1124.8 1461.52 1106.47 1454.2 C 1060.83 1453.02 1026.82 1449.09 990.604 1417.95 C 967.164 1397.79 970.672 1394.81 944.259 1413.31 L 944.906 1414.66 C 933.123 1421.94 881.451 1445.28 870.04 1437.25 C 821.114 1437.65 797.265 1429.07 758.727 1399.89 C 750.16 1398.8 743.065 1383.75 736.572 1380.14 C 726.612 1374.6 699.105 1392.75 689.084 1386.43 C 647.217 1389.57 625.616 1384.59 592.176 1359.31 L 591.238 1360.13 C 588.178 1358.78 585.398 1356.19 585.046 1352.81 C 573.704 1336.21 570.458 1334.15 559.964 1314.02 C 559.408 1314.2 558.792 1314.02 558.207 1313.98 C 554.343 1307.77 550.486 1298.11 551.284 1290.76 C 550.638 1289.11 550.073 1287.67 548.009 1287.1 C 504.257 1274.86 472.044 1247.33 444.503 1212.37 L 444.106 1213.68 C 438.306 1209.81 422.226 1179.88 421.88 1172.18 C 422.676 1169.43 438.34 1156.7 443.632 1146.82 C 443.983 1143.9 452.832 1124.04 454.858 1120.09 C 459.594 1110.84 459.246 1082.22 462.748 1077.81 z"></path><path transform="translate(0,0)" fill="rgb(29,11,12)" d="M 1252.96 1257.85 C 1253.43 1257.91 1253.89 1257.96 1254.35 1258.03 C 1260.22 1258.92 1281.61 1270.89 1289.22 1273.93 C 1331.16 1290.66 1385.33 1293.88 1429.47 1286.03 C 1449.07 1282.55 1474.75 1274.62 1493.1 1266.49 C 1496.47 1264.99 1504.9 1259.93 1507.87 1261.4 C 1475.29 1278.81 1434.93 1289.34 1398.18 1291.7 C 1357.2 1294.4 1316.16 1287.55 1278.28 1271.69 C 1270.68 1268.49 1259.1 1263.28 1252.96 1257.85 z"></path><path transform="translate(0,0)" fill="rgb(29,11,12)" d="M 726.081 1262.1 C 731.355 1262.58 751.707 1275.46 758.831 1278.82 C 795.794 1296.3 837.555 1301.27 877.49 1292.2 C 890.53 1289.24 901.732 1281.62 915.254 1280.84 C 854.182 1312.55 780.859 1301.11 726.081 1262.1 z"></path><path transform="translate(0,0)" fill="rgb(29,11,12)" d="M 969.254 1274.39 C 974.474 1274.47 990.697 1287.14 998.682 1290.59 C 1023.21 1301.2 1046.1 1308.04 1072.51 1312.34 C 1080.98 1313.72 1107.61 1311.14 1112.03 1314.7 C 1068.35 1318.33 1002.79 1303.78 969.254 1274.39 z"></path><path transform="translate(0,0)" fill="rgb(29,11,12)" d="M 541.743 1176.77 L 543.319 1175.85 C 577.353 1198.3 611.319 1212.47 652.984 1215.13 C 658.274 1215.47 674.281 1212.7 676.163 1216.86 C 625.359 1219.75 582.89 1206.24 541.743 1176.77 z"></path><path transform="translate(0,0)" fill="rgb(29,11,12)" d="M 1115.68 1314.47 L 1113.48 1313.54 C 1114.91 1312.27 1134.17 1309.4 1136.98 1309.4 C 1148.42 1309.4 1188.02 1291.42 1195.28 1292.85 C 1170.22 1304.67 1143.27 1311.99 1115.68 1314.47 z"></path><path transform="translate(0,0)" fill="rgb(47,17,19)" d="M 1189.41 1430.43 L 1189.9 1431.63 C 1173.66 1441.9 1124.8 1461.52 1106.47 1454.2 C 1142.01 1451.75 1157.35 1445.53 1189.41 1430.43 z"></path><path transform="translate(0,0)" fill="rgb(29,11,12)" d="M 1398.26 1415.3 L 1398.94 1416.63 C 1378.33 1427.29 1358.95 1436.21 1335.36 1438.4 C 1331.13 1438.79 1325.24 1440 1321.77 1437.22 C 1354.12 1435.11 1369.17 1428.82 1398.26 1415.3 z"></path><path transform="translate(0,0)" fill="rgb(29,11,12)" d="M 944.259 1413.31 L 944.906 1414.66 C 933.123 1421.94 881.451 1445.28 870.04 1437.25 C 897.621 1435.45 920.06 1425.27 944.259 1413.31 z"></path><path transform="translate(0,0)" fill="rgb(29,11,12)" d="M 689.084 1386.43 C 707.647 1383.27 717.602 1379.24 734.562 1375.42 C 742.796 1383.39 750.453 1392.27 758.727 1399.89 C 750.16 1398.8 743.065 1383.75 736.572 1380.14 C 726.612 1374.6 699.105 1392.75 689.084 1386.43 z"></path><path transform="translate(0,0)" fill="rgb(47,17,19)" d="M 1530.51 1252.67 L 1532.36 1251.94 C 1532.05 1251.34 1536.11 1268.43 1536.28 1269.23 C 1540.15 1287.65 1549.64 1301 1561.02 1315.6 C 1561.86 1316.7 1561.6 1316.48 1561.93 1318.17 C 1544.22 1304.83 1533.61 1274.15 1530.51 1252.67 z"></path><path transform="translate(0,0)" fill="rgb(29,11,12)" d="M 465.727 1072.62 C 467.469 1073.62 473.156 1085.85 473.677 1088.37 C 476.166 1100.41 506.901 1137.98 508.419 1144.93 C 493.648 1130.51 471.142 1092.63 465.727 1072.62 z"></path><path transform="translate(0,0)" fill="rgb(29,11,12)" d="M 443.632 1146.82 C 443.983 1143.9 452.832 1124.04 454.858 1120.09 C 459.594 1110.84 459.246 1082.22 462.748 1077.81 C 463.671 1102.52 457.94 1126.42 443.632 1146.82 z"></path><path transform="translate(0,0)" fill="rgb(29,11,12)" d="M 421.88 1172.18 C 430.807 1187.07 433.362 1196.05 444.503 1212.37 L 444.106 1213.68 C 438.306 1209.81 422.226 1179.88 421.88 1172.18 z"></path><path transform="translate(0,0)" fill="rgb(47,17,19)" d="M 559.964 1314.02 C 559.408 1314.2 558.792 1314.02 558.207 1313.98 C 554.343 1307.77 550.486 1298.11 551.284 1290.76 C 554.327 1298.5 556.926 1306.39 559.964 1314.02 z"></path><path transform="translate(0,0)" fill="rgb(47,17,19)" d="M 1462.76 1357.72 C 1468.78 1356.92 1477.36 1361.34 1485.06 1362.44 L 1483.22 1363.59 C 1475.36 1364.11 1470.08 1360.9 1462.76 1357.72 z"></path><path transform="translate(0,0)" fill="rgb(29,11,12)" d="M 682.062 1216.41 C 686.554 1219.35 692.805 1227.89 695.821 1232.43 L 696.014 1234.78 C 691.857 1230.1 684.152 1221.91 682.062 1216.41 z"></path><path transform="translate(0,0)" fill="rgb(29,11,12)" d="M 585.046 1352.81 C 587.455 1354.94 589.832 1357.1 592.176 1359.31 L 591.238 1360.13 C 588.178 1358.78 585.398 1356.19 585.046 1352.81 z"></path><path transform="translate(0,0)" fill="rgb(250,113,125)" d="M 1066.68 272.644 L 1066.01 271.97 C 1067.75 269.791 1082.46 262.986 1085.46 261.87 C 1136.63 242.843 1187.51 246.279 1237.06 267.317 L 1236.44 268.595 L 1239.74 270.535 C 1240.27 276.321 1234.57 280.501 1231.41 286.924 C 1231.46 290.839 1227.91 296.984 1226.06 300.795 C 1218.29 316.928 1207.2 340.221 1218.42 357.349 C 1226.55 369.773 1242.3 373.74 1255.16 377.655 C 1271.97 382.776 1282.79 370.754 1290.8 370.447 L 1292.42 368.833 C 1292.6 363.264 1317.54 320.273 1323.56 318.3 C 1325.3 316.184 1327.15 314.06 1328.66 311.791 C 1332.85 315.723 1339.84 322.763 1344.47 325.499 C 1351.91 327.081 1369.78 353.399 1374.01 359.779 C 1390.9 385.202 1407.28 423.944 1409.07 454.599 L 1408.19 456.176 L 1407.24 455.508 C 1407.11 465.816 1407.3 476.594 1407.21 487.089 L 1408.88 487.753 C 1411.67 503.426 1397.81 534.194 1390.75 548.058 C 1390.27 547.806 1389.8 547.553 1389.33 547.3 C 1372.13 574.868 1358.49 590.902 1331.11 610.04 C 1324.41 614.723 1316.22 619.12 1310.21 623.266 L 1310.98 624.704 C 1296.06 632.903 1268 645.103 1251.17 645.758 L 1249 644.415 C 1237.29 646.132 1227.04 648.084 1214.98 648.826 C 1157.82 652.342 1094.75 636.533 1046.53 605.395 C 1035.9 598.531 1023.55 587.951 1013.94 579.62 C 997.579 578.821 945.246 486.095 955.605 466.741 C 954.473 453.444 954.345 441.487 954.699 428.132 L 953.227 425.43 C 952.489 406.778 964.389 375.604 974.324 360.045 L 975.588 360.599 C 980.304 354.14 985.474 345.191 990.745 337.994 C 1013.83 306.478 1034.46 292.312 1066.68 272.644 z"></path><path transform="translate(0,0)" fill="rgb(29,11,12)" d="M 1066.68 272.644 L 1066.01 271.97 C 1067.75 269.791 1082.46 262.986 1085.46 261.87 C 1136.63 242.843 1187.51 246.279 1237.06 267.317 L 1236.44 268.595 L 1235.56 268.354 C 1226.1 265.693 1214.56 260.253 1205.89 258.127 C 1170.01 249.33 1132.38 248.946 1097.07 260.516 C 1085.6 264.273 1075.7 269.549 1066.68 272.644 z"></path><path transform="translate(0,0)" fill="rgb(29,11,12)" d="M 1231.41 286.924 C 1231.46 290.839 1227.91 296.984 1226.06 300.795 C 1218.29 316.928 1207.2 340.221 1218.42 357.349 C 1226.55 369.773 1242.3 373.74 1255.16 377.655 C 1271.97 382.776 1282.79 370.754 1290.8 370.447 C 1268.74 391.55 1219.67 377.33 1212.6 347.439 C 1208.07 328.286 1221.46 302.721 1231.41 286.924 z"></path><path transform="translate(0,0)" fill="rgb(29,11,12)" d="M 1344.47 325.499 C 1351.91 327.081 1369.78 353.399 1374.01 359.779 C 1390.9 385.202 1407.28 423.944 1409.07 454.599 L 1408.19 456.176 L 1407.24 455.508 C 1403.61 417.697 1386.14 379.383 1364.11 348.792 C 1358.21 340.611 1350.11 333.793 1344.47 325.499 z"></path><path transform="translate(0,0)" fill="rgb(47,17,19)" d="M 1013.94 579.62 C 997.579 578.821 945.246 486.095 955.605 466.741 C 962.582 512.545 981.538 546.985 1013.94 579.62 z"></path><path transform="translate(0,0)" fill="rgb(29,11,12)" d="M 954.699 428.132 L 953.227 425.43 C 952.489 406.778 964.389 375.604 974.324 360.045 L 975.588 360.599 C 963.584 384.571 957.339 401.566 954.699 428.132 z"></path><path transform="translate(0,0)" fill="rgb(47,17,19)" d="M 1310.21 623.266 L 1310.98 624.704 C 1296.06 632.903 1268 645.103 1251.17 645.758 L 1249 644.415 C 1272.67 639.362 1288.3 633.834 1310.21 623.266 z"></path><path transform="translate(0,0)" fill="rgb(29,11,12)" d="M 1407.21 487.089 L 1408.88 487.753 C 1411.67 503.426 1397.81 534.194 1390.75 548.058 C 1390.27 547.806 1389.8 547.553 1389.33 547.3 C 1399.89 523.495 1404.6 514.381 1407.21 487.089 z"></path><path transform="translate(0,0)" fill="rgb(29,11,12)" d="M 1292.42 368.833 C 1292.6 363.264 1317.54 320.273 1323.56 318.3 C 1318.68 325.243 1315.43 330.218 1311.16 337.253 C 1306.88 344.328 1297.35 364.115 1292.42 368.833 z"></path><path transform="translate(0,0)" fill="rgb(254,194,203)" d="M 1105.96 286.14 C 1142.39 287.192 1128.3 315.121 1112.29 331.908 C 1096.28 348.699 1072.65 382.328 1048.59 384.177 C 1026.49 380.476 1015.79 366.631 1028.5 345.89 C 1042.63 322.826 1080.15 293.246 1105.96 286.14 z"></path><path transform="translate(0,0)" fill="rgb(177,96,105)" d="M 297.942 655.713 L 298.901 654.87 C 316.729 638.901 311.755 612.069 310.188 590.452 C 308.444 567.606 306.417 544.782 304.109 521.986 C 302.958 510.009 300.584 496.795 301.42 484.791 C 301.81 479.194 303.221 473.9 307.585 470.112 C 310.627 467.472 314.579 465.488 318.695 465.748 C 323.517 466.053 327.394 468.946 330.271 472.659 C 339.885 485.065 344.587 574.763 346.142 595.678 C 347.131 608.986 346.091 629.084 352.408 640.814 C 357.871 650.961 369.77 657.112 380.8 658.857 C 391.722 660.586 402.529 658.111 411.449 651.452 C 419.332 645.568 423.659 637.209 424.857 627.541 C 426.402 615.061 424.04 600.9 423.033 588.321 C 421.117 563.569 418.825 538.846 416.158 514.163 C 414.41 499.133 404.862 455.596 430.447 456.192 C 448.443 456.612 451.394 515.678 452.712 529.891 C 456.016 565.514 460.761 603.877 460.762 639.512 C 460.777 652.091 459.545 664.64 457.084 676.975 C 450.591 707.404 436.539 735.707 416.225 759.274 C 409.939 766.508 403.231 773.366 396.137 779.811 C 385.68 789.323 362.512 806.16 361.054 820.014 C 359.5 834.785 362.976 860.703 364.332 876.414 C 367.036 905.781 369.302 935.186 371.128 964.62 C 347.244 960.101 335.904 960.739 312.064 962.218 C 310.053 930.055 307.716 897.913 305.052 865.798 C 304.576 859.564 302.899 847.135 303.176 841.566 C 305.068 803.544 282.795 801.381 256.427 778.428 C 209.561 737.631 200.434 697.412 196.266 637.456 L 189.91 540.673 C 188.984 526.02 183.419 486.661 192.764 474.595 C 204.533 462.609 218.865 472.293 220.342 486.385 C 224.133 522.581 227.094 557.403 229.81 593.779 C 232.122 624.734 229.148 662.792 271.762 664.325 C 274.045 664.408 277.011 664.299 279.162 663.362 L 279.743 661.663 C 285.698 659.496 291.891 657.629 297.942 655.713 z"></path><path transform="translate(0,0)" fill="rgb(47,17,19)" d="M 279.162 663.362 L 279.743 661.663 C 285.698 659.496 291.891 657.629 297.942 655.713 C 291.854 660.459 286.855 662.195 279.162 663.362 z"></path><path transform="translate(0,0)" fill="rgb(249,116,75)" d="M 1615.72 1143 L 1615.7 1141.54 C 1624.6 1135.78 1638.19 1133.22 1648.47 1135.77 L 1653.13 1136.11 C 1661.78 1135.75 1668 1136.04 1676.69 1136.54 C 1683.79 1133.4 1699.09 1140.3 1705.25 1144.61 L 1705.81 1146.51 C 1711.49 1150.3 1717.48 1154.31 1723.02 1158.28 C 1729.12 1158.89 1728.79 1158.89 1733.38 1164.23 C 1751.95 1185.79 1761.2 1212 1758.31 1240.5 C 1756.88 1254.66 1750.85 1274.25 1741.57 1285.3 L 1739.67 1285.86 C 1723.84 1304.48 1717.09 1311.61 1695.62 1323.45 L 1696.02 1325.2 C 1690.9 1327.88 1676.24 1333.99 1671.03 1330.52 C 1635.57 1333.98 1616.68 1328.77 1588.19 1307.44 L 1587.2 1308.19 C 1583.35 1305.81 1580.23 1303.03 1579.31 1298.54 L 1578.7 1297.73 L 1576.54 1297.23 C 1560.3 1281.5 1548.07 1241.65 1554.41 1219.77 L 1556.27 1219.07 C 1558.16 1213.92 1558.73 1206.21 1560.59 1201.59 C 1572.96 1170.82 1587.76 1157.26 1615.72 1143 z"></path><path transform="translate(0,0)" fill="rgb(255,147,101)" d="M 1615.72 1143 L 1615.7 1141.54 C 1624.6 1135.78 1638.19 1133.22 1648.47 1135.77 L 1653.13 1136.11 C 1658.52 1142.25 1663.63 1146.99 1666.97 1154.74 C 1688.2 1204.12 1658.07 1251.91 1602.73 1247.46 C 1574.29 1245.17 1575.48 1233.6 1555.89 1225.23 L 1556.27 1219.07 C 1558.16 1213.92 1558.73 1206.21 1560.59 1201.59 C 1572.96 1170.82 1587.76 1157.26 1615.72 1143 z"></path><path transform="translate(0,0)" fill="rgb(47,17,19)" d="M 1615.72 1143 L 1615.7 1141.54 C 1624.6 1135.78 1638.19 1133.22 1648.47 1135.77 C 1635.22 1136.68 1628.45 1138.95 1615.72 1143 z"></path><path transform="translate(0,0)" fill="rgb(47,17,19)" d="M 1723.02 1158.28 C 1729.12 1158.89 1728.79 1158.89 1733.38 1164.23 C 1751.95 1185.79 1761.2 1212 1758.31 1240.5 C 1756.88 1254.66 1750.85 1274.25 1741.57 1285.3 L 1739.67 1285.86 C 1740.31 1283.62 1746.28 1273.68 1747.57 1270.79 C 1765.65 1229.94 1755.2 1186.77 1723.02 1158.28 z"></path><path transform="translate(0,0)" fill="rgb(29,11,12)" d="M 1578.7 1297.73 L 1576.54 1297.23 C 1560.3 1281.5 1548.07 1241.65 1554.41 1219.77 L 1556.27 1219.07 L 1555.89 1225.23 C 1554.89 1255.72 1559.92 1273.12 1578.7 1297.73 z"></path><path transform="translate(0,0)" fill="rgb(47,17,19)" d="M 1676.69 1136.54 C 1683.79 1133.4 1699.09 1140.3 1705.25 1144.61 L 1705.81 1146.51 C 1694.72 1141.39 1688.55 1139.29 1676.69 1136.54 z"></path><path transform="translate(0,0)" fill="rgb(47,17,19)" d="M 1671.03 1330.52 C 1679.58 1328.91 1687.27 1325.87 1695.62 1323.45 L 1696.02 1325.2 C 1690.9 1327.88 1676.24 1333.99 1671.03 1330.52 z"></path><path transform="translate(0,0)" fill="rgb(29,11,12)" d="M 1579.31 1298.54 L 1588.19 1307.44 L 1587.2 1308.19 C 1583.35 1305.81 1580.23 1303.03 1579.31 1298.54 z"></path><path transform="translate(0,0)" fill="rgb(250,113,125)" d="M 293.675 997.948 C 295.769 986.872 348.835 983.515 359.624 987.907 C 367.969 991.304 381.658 992.807 388.546 1000.09 L 388.79 1001.51 C 393.35 1005.1 398.065 1008.34 402.807 1011.68 L 404.312 1010.86 C 409.603 1014.23 424.236 1029.35 423.54 1035.46 L 423.802 1035.97 C 428.406 1038.4 432.252 1048.49 433.748 1053.49 C 435.802 1060.16 437.257 1067 438.097 1073.94 C 439.503 1080.02 439.676 1083.96 438.17 1090.06 C 436.862 1099.29 433.349 1116.85 427.276 1124.09 L 426.37 1123.3 C 393.302 1174.93 339.585 1194.24 283.046 1162.03 C 279.321 1159.91 271.677 1153.39 268.644 1151.92 C 263.053 1151.12 257.888 1143.77 254.893 1139.28 L 255.766 1137.76 L 251.415 1131.79 L 249.647 1131.42 C 237.732 1114.77 233.53 1091.01 236.749 1070.96 L 238.174 1071.12 L 238.484 1069.34 C 235.501 1064 241.968 1043.77 247.514 1041.19 C 248.603 1040.21 254.737 1030.19 256.374 1028.09 C 267.554 1013.77 278.225 1006.71 293.675 997.948 z"></path><path transform="translate(0,0)" fill="rgb(29,11,12)" d="M 293.675 997.948 C 295.769 986.872 348.835 983.515 359.624 987.907 C 367.969 991.304 381.658 992.807 388.546 1000.09 L 388.79 1001.51 C 354.411 984.444 329.473 983.438 293.675 997.948 z"></path><path transform="translate(0,0)" fill="rgb(29,11,12)" d="M 423.802 1035.97 C 428.406 1038.4 432.252 1048.49 433.748 1053.49 C 435.802 1060.16 437.257 1067 438.097 1073.94 C 439.503 1080.02 439.676 1083.96 438.17 1090.06 C 436.862 1099.29 433.349 1116.85 427.276 1124.09 L 426.37 1123.3 C 427.444 1120.69 428.474 1118.05 429.459 1115.41 C 440.776 1084.96 436.81 1064.49 423.802 1035.97 z"></path><path transform="translate(0,0)" fill="rgb(89,37,38)" d="M 438.097 1073.94 C 439.503 1080.02 439.676 1083.96 438.17 1090.06 L 438.097 1073.94 z"></path><path transform="translate(0,0)" fill="rgb(47,17,19)" d="M 251.415 1131.79 L 249.647 1131.42 C 237.732 1114.77 233.53 1091.01 236.749 1070.96 L 238.174 1071.12 C 237.504 1096.7 238.638 1108.5 251.415 1131.79 z"></path><path transform="translate(0,0)" fill="rgb(29,11,12)" d="M 402.807 1011.68 L 404.312 1010.86 C 409.603 1014.23 424.236 1029.35 423.54 1035.46 C 416.64 1025.34 411.654 1020.18 402.807 1011.68 z"></path><path transform="translate(0,0)" fill="rgb(47,17,19)" d="M 238.484 1069.34 C 235.501 1064 241.968 1043.77 247.514 1041.19 C 243.111 1051.64 240.604 1058.16 238.484 1069.34 z"></path><path transform="translate(0,0)" fill="rgb(29,11,12)" d="M 268.644 1151.92 C 263.053 1151.12 257.888 1143.77 254.893 1139.28 L 255.766 1137.76 C 260.644 1143.9 262.974 1146.53 268.644 1151.92 z"></path><path transform="translate(0,0)" fill="rgb(237,103,116)" d="M 314.503 1003.15 C 325.164 1002.42 333.808 1003.04 343.286 1008.91 C 359.712 1019.08 370.462 1043.94 358.353 1061.16 C 350.453 1072.38 335.521 1075.81 322.714 1078.05 C 311.318 1078.26 299.584 1076.94 290.107 1071.3 C 267.435 1057.83 263.586 1029.98 286.743 1014.82 C 297.321 1007.9 302.56 1005.82 314.503 1003.15 z"></path><path transform="translate(0,0)" fill="rgb(249,116,75)" d="M 1380 182.751 L 1380.54 180.045 C 1402.08 165.834 1439.59 146.139 1457.18 174.387 C 1458.95 177.226 1459.45 179.308 1459.49 182.536 C 1457.53 187.093 1414.5 206.673 1408.82 206.339 C 1376.25 220.839 1313.19 278.229 1294.72 308.822 C 1294.75 313.097 1277.13 345.93 1273.95 347.07 C 1265.09 354.757 1253.01 354.352 1244.2 346.651 C 1240.04 343.019 1240.34 340.337 1240.16 335.189 C 1238.17 329.06 1250.34 304.731 1255.46 303.196 C 1261.65 295.347 1267.16 285.384 1273.66 277.211 C 1307.33 234.846 1335.43 211.958 1380 182.751 z"></path><path transform="translate(0,0)" fill="rgb(47,17,19)" d="M 1380 182.751 L 1380.54 180.045 C 1402.08 165.834 1439.59 146.139 1457.18 174.387 C 1458.95 177.226 1459.45 179.308 1459.49 182.536 C 1457.53 187.093 1414.5 206.673 1408.82 206.339 C 1424.2 197.027 1442.68 190.658 1458.96 182.763 C 1441.36 144.587 1405.6 168.727 1380 182.751 z"></path><path transform="translate(0,0)" fill="rgb(47,17,19)" d="M 1294.72 308.822 C 1294.75 313.097 1277.13 345.93 1273.95 347.07 C 1274.73 340.718 1290.79 314.846 1294.72 308.822 z"></path><path transform="translate(0,0)" fill="rgb(47,17,19)" d="M 1240.16 335.189 C 1238.17 329.06 1250.34 304.731 1255.46 303.196 C 1249.66 314.213 1244.61 323.504 1240.16 335.189 z"></path><path transform="translate(0,0)" fill="rgb(177,96,105)" d="M 380.404 1197.21 C 384.234 1198.26 386.919 1263.84 387.8 1271.79 C 390.053 1292.14 388.516 1318.75 361.727 1318.42 C 350.438 1318.27 348.822 1317.85 339.334 1311.94 C 334.426 1306.62 331.505 1300.52 330.604 1293.31 C 326.929 1263.88 326.109 1233.52 324.073 1203.93 C 345.992 1205.28 359.179 1204.13 380.404 1197.21 z"></path><path transform="translate(0,0)" fill="rgb(103,48,48)" d="M 1690.48 380.217 C 1722.72 378.208 1724.19 402.062 1730.47 425.744 C 1737.47 452.155 1752.05 479.409 1776.4 493.344 C 1791.97 502.253 1814.1 507.169 1817.99 527.369 C 1822.29 547.08 1808.29 556.003 1792.57 562.671 C 1760.79 576.213 1743.41 604.855 1731.24 635.698 C 1722.84 656.996 1719.54 672.251 1695.48 677.886 C 1665.93 679.244 1660.96 660.126 1652.09 636.667 C 1643.42 613.722 1633.17 592.986 1613.84 577.024 C 1600.87 564.716 1572.17 558.403 1567.06 539.459 C 1557.96 504.016 1597.5 501.358 1618.9 487.326 C 1640.62 473.92 1652.38 448.48 1659.89 424.951 C 1666.27 405.003 1666.78 386.885 1690.48 380.217 z"></path><path transform="translate(0,0)" fill="rgb(249,116,75)" d="M 1692.37 417.427 C 1693.34 415.484 1694.33 412.578 1695.13 410.477 L 1696.18 410.292 L 1697.59 413.981 L 1699.62 414.783 C 1702.58 422.934 1707.02 438.34 1709.12 446.83 C 1711.68 457.164 1729.98 481.851 1729.84 488.034 L 1730.53 488.651 C 1732.29 489.3 1762.77 514.133 1769.11 518.368 L 1769.9 520.71 C 1776.82 525.119 1783.57 527.31 1790.09 531.182 C 1763.87 545.304 1740.47 558.289 1724.8 585.11 C 1724.67 588.413 1701.72 636.598 1699.42 637.693 C 1696.94 642.022 1695.33 646.631 1691.57 648.714 C 1687.75 647.693 1688.66 647.673 1685.4 644.565 L 1684.28 644.873 C 1679.82 637.249 1675.38 621.894 1671.47 612.846 C 1668.99 607.11 1659.56 589.589 1659.52 585.829 C 1658.8 583.74 1656.99 581.719 1655.59 579.835 L 1653.71 579.298 C 1647.08 572.025 1640.2 565.682 1633.02 559.032 C 1627.93 554.32 1619.54 549.317 1616.29 544.252 C 1614.71 542.16 1596.71 533.243 1593.19 531.431 C 1628.09 516.084 1660.27 496.811 1676.33 460.23 C 1675.4 455.652 1688.21 420.053 1692.37 417.427 z"></path><path transform="translate(0,0)" fill="rgb(47,17,19)" d="M 1697.59 413.981 L 1699.62 414.783 C 1702.58 422.934 1707.02 438.34 1709.12 446.83 C 1711.68 457.164 1729.98 481.851 1729.84 488.034 C 1713 467.83 1702.85 439.432 1697.59 413.981 z"></path><path transform="translate(0,0)" fill="rgb(47,17,19)" d="M 1685.4 644.565 L 1684.28 644.873 C 1679.82 637.249 1675.38 621.894 1671.47 612.846 C 1668.99 607.11 1659.56 589.589 1659.52 585.829 C 1668.05 598.534 1682.61 630.176 1685.4 644.565 z"></path><path transform="translate(0,0)" fill="rgb(47,17,19)" d="M 1724.8 585.11 C 1724.67 588.413 1701.72 636.598 1699.42 637.693 C 1707.1 616.718 1712.71 604.298 1724.8 585.11 z"></path><path transform="translate(0,0)" fill="rgb(47,17,19)" d="M 1616.29 544.252 C 1633.81 554.174 1644 563.717 1655.59 579.835 L 1653.71 579.298 C 1647.08 572.025 1640.2 565.682 1633.02 559.032 C 1627.93 554.32 1619.54 549.317 1616.29 544.252 z"></path><path transform="translate(0,0)" fill="rgb(47,17,19)" d="M 1730.53 488.651 C 1732.29 489.3 1762.77 514.133 1769.11 518.368 L 1769.9 520.71 C 1755.99 513.642 1740.11 501.065 1730.53 488.651 z"></path><path transform="translate(0,0)" fill="rgb(47,17,19)" d="M 1676.33 460.23 C 1675.4 455.652 1688.21 420.053 1692.37 417.427 C 1687.53 432.846 1683.5 445.59 1676.33 460.23 z"></path><path transform="translate(0,0)" fill="rgb(237,103,116)" d="M 1825.5 842.376 C 1850.05 840.932 1848.11 864.388 1854.89 880.628 C 1861.44 896.303 1875.44 896.654 1889.65 901.474 C 1903.35 906.126 1907.85 917.052 1902.62 930.507 C 1897.68 942.727 1881.38 943.461 1870.46 947.743 C 1853.6 954.352 1854.49 970.415 1848.98 984.829 C 1846.2 991.807 1842.35 994.088 1835.82 996.823 C 1805.32 998.795 1814.19 971.51 1799.78 955.394 C 1788.14 942.377 1759.71 946.809 1755.32 925.911 C 1749 895.79 1784.34 904.096 1797.61 888.297 C 1810.24 873.248 1801.61 846.977 1825.5 842.376 z"></path><path transform="translate(0,0)" fill="rgb(237,103,116)" d="M 282.045 1420.3 C 308.061 1418.93 300.713 1442.68 311.221 1457.78 C 319.288 1469.37 348.682 1462.07 345.714 1485.54 C 343.462 1503.34 319.606 1497.12 311.597 1507.97 C 303.28 1519.25 308.423 1527.23 294.669 1536.72 C 264.814 1540.31 277.947 1514.13 259.313 1503.65 C 247.446 1496.97 224.98 1497.93 230.846 1476.05 C 233.7 1465.4 249.331 1465.96 257.122 1461.03 C 274.745 1449.98 262.812 1430.78 282.045 1420.3 z"></path></svg>