<!-- Generated by SVGMaker - https://svgmaker.io -->
<!-- Prompt: Create a simplified, clean SVG version of the original design, focusing on clear vector lines and minimal details, with a balanced composition and a limited color palette for easy scalability and versatility. -->
<!-- Quality: low -->
<!-- Type: edit -->
<!-- Created: 2026-05-06T10:59:24.091Z -->
<svg version="1.1" xmlns="http://www.w3.org/2000/svg" style="display: block;" viewBox="0 0 2048 2048" width="1024" height="1024" preserveAspectRatio="none"><defs><linearGradient id="Gradient1" gradientUnits="userSpaceOnUse" x1="1743.29" y1="673.212" x2="1607.51" y2="624.355"><stop class="stop0" offset="0" stop-opacity="1" stop-color="rgb(255,125,35)"></stop><stop class="stop1" offset="1" stop-opacity="1" stop-color="rgb(255,183,100)"></stop></linearGradient><linearGradient id="Gradient2" gradientUnits="userSpaceOnUse" x1="431.952" y1="981.46" x2="313.184" y2="552.097"><stop class="stop0" offset="0" stop-opacity="1" stop-color="rgb(160,85,173)"></stop><stop class="stop1" offset="1" stop-opacity="1" stop-color="rgb(230,152,206)"></stop></linearGradient></defs><path transform="translate(0,0)" fill="rgb(82,32,38)" d="M 1282.81 307.448 C 1295.81 269.337 1349.23 191.884 1397.38 226.911 C 1405.22 232.565 1410.38 241.211 1411.62 250.8 C 1412.6 257.843 1411.37 265.014 1408.11 271.333 C 1402.88 281.265 1389.9 293.075 1382.22 302.161 C 1372.4 313.785 1361.75 325.618 1352.68 337.825 L 1350.35 342.122 C 1361.41 345.273 1385.45 370.577 1393.59 379.753 C 1437.86 429.652 1455.9 501.802 1437.23 566.176 C 1434.95 574.049 1428.54 594.725 1423.47 600.21 C 1426.57 604.52 1440.4 612.834 1445.42 617.134 C 1474.85 642.345 1497.22 681.386 1490.49 721.265 L 1489.17 728.615 C 1569 795.275 1624.62 891.946 1632.77 996.069 C 1634.6 1019.52 1635.18 1061.57 1629.53 1084.41 C 1654.25 1112.55 1663.56 1141.14 1665.46 1178.44 C 1731.52 1261.01 1678.45 1372.71 1575.15 1381.01 C 1569.91 1381.43 1563.76 1380.75 1558.57 1380.06 C 1553.26 1379.32 1547.96 1378.53 1542.67 1377.69 C 1538.8 1385.99 1527.54 1395.45 1524.52 1405.19 C 1518.69 1424.06 1514.43 1443.69 1509.5 1462.87 L 1478.38 1585.79 C 1473.8 1604.39 1466.21 1638 1459.62 1654.43 C 1454.32 1667.37 1447.04 1679.41 1438.06 1690.13 C 1378.25 1760.99 1227.42 1787.39 1139.51 1794.66 C 1101.03 1797.94 1062.39 1798.92 1023.79 1797.62 C 903.278 1793.09 738.773 1769.88 639.789 1694.09 C 607.937 1669.7 601.056 1633.69 593.97 1596.74 C 589.977 1575.62 585.858 1554.53 581.612 1533.47 C 571.168 1480.42 561.053 1427.31 551.268 1374.14 C 547.074 1351.61 537.456 1304.56 535.826 1283.58 C 528.849 1278.45 515.869 1272.39 507.549 1270.07 C 508.748 1294.75 505.175 1325.02 482.734 1336.51 C 422.145 1367.53 396.329 1301.67 393.314 1253.76 C 393.077 1250 385.52 1203.58 385.015 1203.12 C 377.817 1196.49 353.297 1188.2 344.49 1180.19 C 333.337 1171.01 325.63 1162.94 318.121 1150.55 C 302.745 1125.04 298.256 1094.43 305.663 1065.58 C 314.128 1031.87 333.508 1012.89 362.234 995.727 C 353.351 958.929 348.256 924.837 340.416 888.631 C 322.456 884.873 305.291 878.003 289.697 868.331 C 256.822 847.616 232.35 809.447 225.136 771.548 C 215.272 719.574 211.513 666.644 202.987 614.42 C 199.066 590.403 194.187 556.856 227.431 551.228 C 272.889 543.531 274.317 589.164 279.112 621.083 L 289.725 694.687 C 290.779 702.091 292.412 713.458 298.578 718.07 C 317.35 720.473 309.667 694.029 308.129 682.277 C 304.968 658.502 301.5 634.769 297.726 611.084 C 295.241 595.081 289.875 575.919 293.79 560.149 C 298.911 539.522 324.829 531.991 343.224 538.343 C 351.791 541.28 358.924 547.36 363.18 555.353 C 372.697 573.36 382.952 648.426 386.655 672.257 C 387.679 678.848 388.175 692.517 391.628 697.949 C 393.433 700.788 396.486 703.401 399.947 703.821 C 402.465 704.127 404.885 703.794 406.861 702.057 C 418.72 691.634 386.078 576.291 387.929 552.896 C 388.699 543.167 393.121 534.371 400.756 528.227 C 409.053 521.551 419.703 518.83 430.221 520.123 C 438.378 521.126 448.712 524.793 453.735 531.687 C 457.309 536.592 459.781 542.858 461.601 548.625 C 468.282 569.808 472.098 592.887 476.889 614.603 C 485.501 653.638 495.317 693.152 499.144 732.997 C 500.525 746.633 500.293 760.385 498.453 773.966 C 491.698 820.402 471.264 846.108 435.128 872.825 C 441.336 896.49 445.57 926.411 449.997 950.702 C 451.931 961.319 455.369 980.716 455.99 990.857 C 471.971 999.036 479.998 1003.3 492.543 1015.86 C 483.847 982.436 493.674 906.981 502.934 872.82 C 521.841 801.521 565.329 739.194 625.72 696.84 C 641.441 685.605 658.066 676.242 674.812 666.631 C 700.199 562.304 812.919 498.139 908.542 468.323 C 925.878 462.917 949.708 456.046 967.496 455.895 C 972.62 434.802 974.575 424.568 984.115 404.046 C 1007.3 353.916 1049.73 315.261 1101.8 296.831 C 1161.16 276.204 1226.28 280.024 1282.81 307.448 z"></path><path transform="translate(0,0)" fill="rgb(17,7,8)" d="M 1282.81 307.448 C 1295.81 269.337 1349.23 191.884 1397.38 226.911 C 1405.22 232.565 1410.38 241.211 1411.62 250.8 C 1412.6 257.843 1411.37 265.014 1408.11 271.333 C 1402.88 281.265 1389.9 293.075 1382.22 302.161 C 1372.4 313.785 1361.75 325.618 1352.68 337.825 C 1352.63 336.758 1352.58 335.691 1352.53 334.624 C 1359.03 324.181 1375.19 306.462 1382.43 297.946 C 1393.36 285.201 1410.21 273.182 1409.16 254.458 C 1408.73 246.762 1404.31 235.595 1398.37 231.041 C 1368.77 208.374 1337.5 227.757 1318.31 253.077 C 1309.73 264.405 1303.26 273.417 1296.38 285.655 C 1292.54 291.976 1287.37 305.31 1281.23 308.552 C 1268.26 304.647 1256.04 298.167 1242.52 294.619 C 1185.18 278.977 1124.03 285.654 1071.41 313.305 C 1028.9 335.947 991.908 381.974 976.991 428.284 C 974.062 437.379 972.84 449.358 969.03 457.932 C 877.696 469.047 768.513 523.339 711.167 596.582 C 702.436 607.526 695.101 619.514 689.331 632.27 C 688.001 635.278 675.87 668.7 675.332 669.075 C 663.187 677.436 650.002 683.43 637.577 691.588 C 547.203 750.925 495.371 849.389 493.207 957.01 C 492.849 974.812 492.368 992.556 493.452 1010.37 C 493.588 1012.61 493.291 1013.76 491.802 1015.24 C 486.451 1012.93 463.344 997.819 454.105 992.722 L 453.833 991.535 C 449.505 972.089 446.809 947.252 443.096 926.942 C 440.891 914.877 433.386 881.603 433.663 871.974 C 440.903 863.572 451.21 858.179 458.798 850.115 C 488.167 818.904 499.77 779.202 496.508 736.92 C 493.017 691.651 480.997 646.387 471.166 602.15 C 466.9 582.957 463.403 559.027 456.185 541.035 C 454.45 536.71 450.792 532.887 447.278 529.921 C 439.405 523.272 429.358 521.73 419.294 522.904 C 410.538 523.925 402.276 529.169 397.065 536.197 C 388.23 548.114 390.914 562.357 393.271 575.931 C 397.372 599.548 402.034 623.118 406.33 646.711 C 408.89 660.773 412.569 675.919 412.813 690.226 C 412.876 693.888 412.541 698.976 410.245 702.041 C 408.191 704.784 404.653 706.864 401.199 707.199 C 398.049 707.505 395.263 706.075 393.152 703.849 C 379.067 688.994 376.045 577.964 358.053 552.598 C 352.045 544.127 342.834 539.613 332.554 539.093 C 322.082 538.563 311.15 541.626 303.447 548.973 C 297.261 554.874 295.194 561.511 295.072 569.893 C 294.891 582.349 298.069 595.411 300.122 607.665 C 303.03 625.021 305.237 642.486 307.894 659.882 C 310.11 674.397 313.531 690.211 313.543 704.876 C 313.547 709.021 313.244 715.307 309.975 718.353 C 306.376 721.706 300.534 720.959 296.131 720.204 C 295.398 720.076 294.667 719.939 293.938 719.792 C 291.944 715.201 289.377 709.399 288.602 704.416 C 283.872 673.967 279.927 644.089 275.042 613.547 C 272.676 598.755 271.235 580.504 263.373 567.102 C 243.697 540.308 198.869 553.345 203.204 589.395 C 210.378 649.058 218.164 711.275 227.981 770.319 C 236.061 818.911 274.452 866.016 321.328 881.03 C 327.98 883.161 339.667 884.19 343.638 889.603 C 346.141 901.026 364.786 991.187 363.127 996.285 C 357.22 1003.59 347.267 1008.23 340.072 1014.48 C 314.095 1037.05 301.791 1070.17 305.559 1104.2 C 308.89 1134.28 323.061 1159.64 346.886 1178.3 C 356.611 1185.92 383.833 1197.2 387.675 1202.92 C 390.803 1207.58 391.011 1218.25 391.862 1223.87 C 397.82 1263.17 401.476 1348.21 460.454 1341.58 C 473.228 1340.24 484.888 1333.7 492.695 1323.51 C 502.378 1310.99 504.891 1298.06 504.958 1282.73 C 504.971 1279.94 504.616 1271.45 506.348 1270.1 L 507.549 1270.07 C 508.748 1294.75 505.175 1325.02 482.734 1336.51 C 422.145 1367.53 396.329 1301.67 393.314 1253.76 C 393.077 1250 385.52 1203.58 385.015 1203.12 C 377.817 1196.49 353.297 1188.2 344.49 1180.19 C 333.337 1171.01 325.63 1162.94 318.121 1150.55 C 302.745 1125.04 298.256 1094.43 305.663 1065.58 C 314.128 1031.87 333.508 1012.89 362.234 995.727 C 353.351 958.929 348.256 924.837 340.416 888.631 C 322.456 884.873 305.291 878.003 289.697 868.331 C 256.822 847.616 232.35 809.447 225.136 771.548 C 215.272 719.574 211.513 666.644 202.987 614.42 C 199.066 590.403 194.187 556.856 227.431 551.228 C 272.889 543.531 274.317 589.164 279.112 621.083 L 289.725 694.687 C 290.779 702.091 292.412 713.458 298.578 718.07 C 317.35 720.473 309.667 694.029 308.129 682.277 C 304.968 658.502 301.5 634.769 297.726 611.084 C 295.241 595.081 289.875 575.919 293.79 560.149 C 298.911 539.522 324.829 531.991 343.224 538.343 C 351.791 541.28 358.924 547.36 363.18 555.353 C 372.697 573.36 382.952 648.426 386.655 672.257 C 387.679 678.848 388.175 692.517 391.628 697.949 C 393.433 700.788 396.486 703.401 399.947 703.821 C 402.465 704.127 404.885 703.794 406.861 702.057 C 418.72 691.634 386.078 576.291 387.929 552.896 C 388.699 543.167 393.121 534.371 400.756 528.227 C 409.053 521.551 419.703 518.83 430.221 520.123 C 438.378 521.126 448.712 524.793 453.735 531.687 C 457.309 536.592 459.781 542.858 461.601 548.625 C 468.282 569.808 472.098 592.887 476.889 614.603 C 485.501 653.638 495.317 693.152 499.144 732.997 C 500.525 746.633 500.293 760.385 498.453 773.966 C 491.698 820.402 471.264 846.108 435.128 872.825 C 441.336 896.49 445.57 926.411 449.997 950.702 C 451.931 961.319 455.369 980.716 455.99 990.857 C 471.971 999.036 479.998 1003.3 492.543 1015.86 C 483.847 982.436 493.674 906.981 502.934 872.82 C 521.841 801.521 565.329 739.194 625.72 696.84 C 641.441 685.605 658.066 676.242 674.812 666.631 C 700.199 562.304 812.919 498.139 908.542 468.323 C 925.878 462.917 949.708 456.046 967.496 455.895 C 972.62 434.802 974.575 424.568 984.115 404.046 C 1007.3 353.916 1049.73 315.261 1101.8 296.831 C 1161.16 276.204 1226.28 280.024 1282.81 307.448 z"></path><path transform="translate(0,0)" fill="rgb(17,7,8)" d="M 1488 730.797 C 1487.86 727.113 1487.41 724.371 1488.64 720.919 L 1490.49 721.265 L 1489.17 728.615 C 1569 795.275 1624.62 891.946 1632.77 996.069 C 1634.6 1019.52 1635.18 1061.57 1629.53 1084.41 C 1654.25 1112.55 1663.56 1141.14 1665.46 1178.44 C 1731.52 1261.01 1678.45 1372.71 1575.15 1381.01 C 1569.91 1381.43 1563.76 1380.75 1558.57 1380.06 C 1553.26 1379.32 1547.96 1378.53 1542.67 1377.69 L 1543.09 1376.72 C 1547.15 1375.27 1560.22 1377.7 1565.56 1377.93 C 1657.34 1381.83 1723.58 1281.32 1677.18 1200.33 C 1674.82 1196.21 1663.81 1181.15 1663.46 1177.25 C 1660.14 1140.6 1651.63 1112.95 1626.79 1084.99 C 1650.05 945.63 1590.7 822.121 1488 730.797 z"></path><path transform="translate(0,0)" fill="rgb(17,7,8)" d="M 1350.35 342.122 C 1361.41 345.273 1385.45 370.577 1393.59 379.753 C 1437.86 429.652 1455.9 501.802 1437.23 566.176 C 1434.95 574.049 1428.54 594.725 1423.47 600.21 C 1422.22 593.72 1431.93 576.359 1434.12 568.584 C 1455.14 494.206 1431.92 418.718 1376.49 365.501 C 1368.8 358.121 1359.51 350.886 1351.05 343.945 L 1350.35 342.122 z"></path><path transform="translate(0,0)" fill="rgb(254,254,251)" d="M 699.235 684.799 C 702.083 658.278 708.069 637.999 724.553 616.18 C 779.866 542.967 877.124 497.236 965.355 481.359 C 963.381 521.277 970.817 556.794 992.994 590.442 C 1062.65 696.125 1269.86 726.914 1370.74 658.516 C 1387.2 646.309 1395.78 638.439 1408.4 622.509 C 1455.82 652.493 1483.87 697.496 1454.15 751.044 C 1449.67 759.101 1428.31 778.934 1443.31 785.647 C 1457.66 792.072 1473.46 763.505 1478.61 753.783 C 1577.71 840.902 1628.9 961.541 1604.3 1093.58 C 1623.81 1112.1 1635.58 1125.88 1638.72 1154.4 C 1604.82 1136.67 1572.58 1127.36 1534.45 1139.39 C 1503.66 1149.4 1478.03 1171.11 1463.1 1199.84 C 1458.18 1209.52 1453.44 1225.54 1449.66 1232.45 C 1438.51 1252.83 1406.77 1273.72 1385.01 1281.02 C 1350.82 1292.47 1313.47 1289.76 1281.3 1273.48 C 1271.7 1268.6 1264.56 1263.82 1256.09 1257.32 C 1222.81 1231.52 1235.36 1229.6 1199.47 1259.46 C 1186.39 1270.15 1171.98 1279.09 1156.59 1286.03 C 1092.67 1314.57 1025.5 1297.48 975.674 1250.73 C 970.383 1245.76 962.566 1236.13 956.259 1233.71 C 945.319 1234.94 924.374 1249.55 912.084 1255.42 C 848.622 1285.74 775.002 1272.24 731.533 1215.47 C 722.254 1203.35 715.753 1185.99 707.778 1176.91 C 706.325 1175.25 670.204 1185.07 661.394 1185.97 C 642.76 1187.94 623.922 1185.66 606.295 1179.3 C 499.762 1140.2 500.525 944.728 534.469 855.808 C 566.26 772.528 619.893 721.235 699.235 684.799 z"></path><path transform="translate(0,0)" fill="rgb(253,227,217)" d="M 1408.4 622.509 C 1455.82 652.493 1483.87 697.496 1454.15 751.044 C 1449.67 759.101 1428.31 778.934 1443.31 785.647 C 1457.66 792.072 1473.46 763.505 1478.61 753.783 C 1577.71 840.902 1628.9 961.541 1604.3 1093.58 C 1623.81 1112.1 1635.58 1125.88 1638.72 1154.4 C 1604.82 1136.67 1572.58 1127.36 1534.45 1139.39 C 1503.66 1149.4 1478.03 1171.11 1463.1 1199.84 C 1458.18 1209.52 1453.44 1225.54 1449.66 1232.45 C 1438.51 1252.83 1406.77 1273.72 1385.01 1281.02 C 1350.82 1292.47 1313.47 1289.76 1281.3 1273.48 C 1271.7 1268.6 1264.56 1263.82 1256.09 1257.32 C 1263.68 1250.95 1279.43 1258.65 1289.1 1260.24 C 1403.81 1279.12 1479.8 1172.05 1512.04 1076.13 C 1538.45 1075.49 1543.11 1046.71 1518.5 1045.78 C 1520.42 1030.68 1524.3 1018.13 1525.22 1000.45 C 1528.8 931.69 1506.86 851.223 1451.8 806.364 C 1443.75 799.808 1403.56 779.298 1395.32 776.918 C 1410.94 762.081 1422.64 745.667 1428.69 724.799 C 1437.63 693.975 1428.61 666.905 1395.29 657.839 C 1384.43 660.338 1379.99 663.309 1370.74 658.516 C 1387.2 646.309 1395.78 638.439 1408.4 622.509 z"></path><path transform="translate(0,0)" fill="rgb(179,176,236)" d="M 1518.5 1045.78 C 1543.11 1046.71 1538.45 1075.49 1512.04 1076.13 C 1500.62 1076.17 1423.72 1078.11 1449.92 1051.22 C 1451.92 1049.17 1454.42 1047.69 1457.18 1046.94 C 1464.5 1044.92 1506.96 1045.94 1518.5 1045.78 z"></path><path transform="translate(0,0)" fill="rgb(82,32,38)" d="M 900.698 976.957 C 904.779 976.844 937.807 983.099 944.289 984.204 C 972.343 988.927 1000.44 993.39 1028.58 997.594 C 1033.71 998.384 1052.16 1000.64 1056.76 1003.16 C 1060.36 1005.14 1060.46 1016.33 1060.06 1020.7 C 1057.08 1053.04 1047.13 1076.32 1022.1 1097.27 C 1014.83 1102.66 1009.54 1106.25 1001.08 1109.75 C 979.743 1118.5 955.782 1118.28 934.606 1109.15 C 913.483 1100.08 896.898 1082.89 888.583 1061.46 C 878.386 1035.75 880.967 1011.82 890.489 985.769 C 892.484 980.311 895.57 978.709 900.698 976.957 z"></path><path transform="translate(0,0)" fill="rgb(254,112,139)" d="M 971.979 1045.79 C 977.733 1043.03 992.068 1044.81 996.61 1048.78 L 997.123 1050.4 C 1005.16 1053.4 1014.16 1056.05 1022.39 1058.65 C 1021.36 1060.89 1020.3 1063.13 1019.2 1065.34 C 1001.49 1100.84 950.521 1104 926.538 1073.52 C 920.023 1065.24 918.236 1059.89 915.213 1050 C 937.114 1044.19 949.189 1043.69 971.979 1045.79 z"></path><path transform="translate(0,0)" fill="rgb(17,7,8)" d="M 971.979 1045.79 C 977.733 1043.03 992.068 1044.81 996.61 1048.78 L 997.123 1050.4 C 987.998 1048.34 981.353 1046.81 971.979 1045.79 z"></path><path transform="translate(0,0)" fill="rgb(82,32,38)" d="M 1138.87 917.686 C 1171.4 894.139 1216.68 900.238 1241.83 931.553 C 1266.97 962.867 1263.14 1008.4 1233.12 1035.08 C 1203.1 1061.75 1157.44 1060.21 1129.29 1031.56 C 1101.15 1002.91 1100.41 957.226 1127.62 927.684 C 1131.02 923.984 1134.79 920.635 1138.87 917.686 z"></path><path transform="translate(0,0)" fill="rgb(36,12,14)" d="M 1138.87 917.686 L 1139.8 919.394 C 1136.91 923.415 1134.54 925.429 1130.25 927.938 L 1127.62 927.684 C 1131.02 923.984 1134.79 920.635 1138.87 917.686 z"></path><path transform="translate(0,0)" fill="rgb(254,254,251)" d="M 1170.93 928.093 C 1194.4 925.075 1200.19 950.833 1178.43 961.935 C 1157.19 966.439 1148.97 941.19 1170.93 928.093 z"></path><path transform="translate(0,0)" fill="rgb(82,32,38)" d="M 785.385 853.04 C 802.353 852.523 820.059 859.785 832.198 871.703 C 879.782 918.422 843.437 1005.87 777.629 1007.09 C 738.643 1007.81 709.176 971.125 710.831 933.851 C 711.273 919.666 717.141 893.371 728.138 883.653 C 742.176 865.328 762.077 853.556 785.385 853.04 z"></path><path transform="translate(0,0)" fill="rgb(36,12,14)" d="M 728.138 883.653 C 742.176 865.328 762.077 853.556 785.385 853.04 C 780.883 856.026 763.864 858.335 755.232 862.947 C 745.615 868.085 735.609 882.327 728.138 883.653 z"></path><path transform="translate(0,0)" fill="rgb(254,254,251)" d="M 782.55 877.969 C 805.359 878.765 807.303 905.728 785.698 912.992 C 763.231 913.612 759.071 886.287 782.55 877.969 z"></path><path transform="translate(0,0)" fill="rgb(254,112,139)" d="M 1345.86 1133.06 C 1344.73 1134.1 1343.8 1134.84 1342.57 1135.76 C 1328.78 1146.15 1311.37 1150.52 1294.31 1147.88 C 1213.97 1135.52 1235.71 1023.99 1321.31 1040.46 C 1330.73 1042.8 1350.04 1052.54 1353.48 1061.75 C 1362.34 1073.3 1366.65 1086.08 1364.56 1100.76 C 1363.86 1105.89 1362.21 1110.86 1359.7 1115.4 C 1357.64 1121.29 1351.04 1129.64 1345.86 1133.06 z"></path><path transform="translate(0,0)" fill="rgb(252,77,96)" d="M 1345.86 1133.06 C 1344.73 1134.1 1343.8 1134.84 1342.57 1135.76 C 1328.78 1146.15 1311.37 1150.52 1294.31 1147.88 C 1213.97 1135.52 1235.71 1023.99 1321.31 1040.46 C 1320.69 1040.62 1320.07 1040.78 1319.46 1040.94 C 1224.56 1030.8 1221.36 1156.78 1316.82 1144.79 C 1326.32 1143.6 1340.08 1133.1 1345.86 1133.06 z"></path><path transform="translate(0,0)" fill="rgb(252,77,96)" d="M 1359.7 1115.4 C 1358.17 1109.49 1363.63 1098.12 1362.4 1088.11 C 1361.26 1078.91 1353.76 1067.29 1353.48 1061.75 C 1362.34 1073.3 1366.65 1086.08 1364.56 1100.76 C 1363.86 1105.89 1362.21 1110.86 1359.7 1115.4 z"></path><path transform="translate(0,0)" fill="rgb(254,112,139)" d="M 580.103 1052.52 C 576.481 1050.15 572.418 1044.49 570.361 1040.78 C 563.604 1028.74 562.051 1014.48 566.061 1001.27 C 581.883 949.827 657.092 949.018 679.074 995.744 C 682.661 1003.37 686.309 1016.22 683.285 1024.19 C 681.248 1038.9 674.119 1050.14 662.111 1058.71 C 651.608 1067.06 627.53 1074.34 614.823 1069.29 C 602.591 1068.08 588.72 1061.33 580.103 1052.52 z"></path><path transform="translate(0,0)" fill="rgb(252,77,96)" d="M 662.111 1058.71 C 663.257 1053.13 673.89 1047.51 676.619 1039.42 L 681.488 1025.06 L 683.285 1024.19 C 681.248 1038.9 674.119 1050.14 662.111 1058.71 z"></path><path transform="translate(0,0)" fill="rgb(252,77,96)" d="M 580.103 1052.52 C 591.558 1056.72 593.535 1062.17 609.79 1066.54 L 614.95 1067.94 L 614.823 1069.29 C 602.591 1068.08 588.72 1061.33 580.103 1052.52 z"></path><path transform="translate(0,0)" fill="rgb(254,174,95)" d="M 1382.04 875.104 C 1402.86 873.736 1419.66 903.411 1428.87 918.958 C 1437.35 933.284 1442.4 951.447 1424.44 960.473 C 1408.28 961.863 1392.17 939.332 1384.14 927.498 C 1373.09 911.197 1359.97 888.187 1382.04 875.104 z"></path><path transform="translate(0,0)" fill="rgb(254,174,95)" d="M 996.906 691.979 C 1015.54 689.882 1042.35 706.689 1057.42 716.373 C 1071.94 725.707 1092.92 742.387 1069.74 756.134 C 1049.15 762.694 1009.48 732.505 995.218 718.672 C 985.895 709.63 985.709 699.445 996.906 691.979 z"></path><path transform="translate(0,0)" fill="rgb(254,174,95)" d="M 743.865 732.112 C 757.281 731.531 769.833 745.155 762.851 756.651 C 751.737 774.95 717.504 792.019 698.227 798.081 C 683.504 799.114 670.962 788.016 680.698 774.955 C 692.599 758.991 724.374 736.604 743.865 732.112 z"></path><path transform="translate(0,0)" fill="rgb(254,112,139)" d="M 831.697 609.916 C 848.582 609.59 867.515 637.458 877.098 649.698 C 886.692 661.952 903.306 685.989 880.295 694.287 C 860.816 694.249 846.244 669.352 835.309 655.343 C 825.608 642.914 807.478 617.29 831.697 609.916 z"></path><path transform="translate(0,0)" fill="rgb(252,77,96)" d="M 1277.13 762.008 C 1284.62 761.478 1295.99 764.491 1297.62 772.176 C 1301.98 792.665 1255.82 811.186 1243.24 815.454 C 1240.31 816.529 1235.47 816.216 1232.8 814.683 C 1199.12 795.343 1262.08 766.335 1277.13 762.008 z"></path><path transform="translate(0,0)" fill="rgb(252,77,96)" d="M 571.86 1366.56 C 591.761 1384.74 610.383 1397.67 638.024 1401.64 C 644.028 1400.1 648.39 1399.37 654.535 1400.92 L 655.339 1402.36 L 654.898 1403.35 C 671.229 1406.18 700.688 1399.07 716.445 1393.24 C 754.233 1434.57 793.461 1456.86 850.984 1460.58 C 893.432 1463.33 916.952 1451.53 954.107 1434.1 C 988.42 1461.57 1032.07 1489.73 1077.89 1490.71 C 1091.6 1488.55 1102.58 1488.21 1116.26 1490.73 C 1164.54 1489.31 1198.85 1466.92 1236.05 1441.03 C 1262.31 1453.27 1290.04 1462.27 1318.87 1465.71 C 1328.88 1463.32 1365.66 1463.43 1375.56 1465.8 C 1408.54 1462.85 1443.22 1450.24 1472.29 1434.72 C 1478.42 1431.44 1492.37 1420.92 1497.44 1420.1 L 1498.89 1419.88 C 1499.49 1421.99 1480.65 1496.7 1477.96 1503.24 L 1475.53 1504.25 C 1471.47 1515.05 1468.26 1531.69 1465.4 1543.2 L 1448.67 1608.89 C 1445.5 1621.32 1441.54 1639.04 1436.45 1650.28 C 1421.17 1684.07 1387.77 1705.09 1355.62 1720.24 C 1306.56 1743.37 1259.28 1752.87 1206.63 1762.14 C 1172.21 1767.19 1137.55 1770.5 1102.79 1772.04 C 1095.66 1772.33 1086.4 1772.97 1079.44 1772.79 C 1046.02 1773.67 1016.06 1772.49 982.797 1770.53 C 975.092 1769.69 966.676 1769.69 959.31 1768.41 C 931.158 1767.17 893.346 1760.7 865.198 1756.25 C 857.84 1754.88 850.51 1753.36 843.214 1751.69 C 808.501 1744.72 774.447 1734.81 741.421 1722.05 C 734.867 1719.82 724.822 1716.04 718.932 1712.69 C 679.681 1696.7 634.481 1671.29 623.829 1626.89 C 619.901 1610.51 616.584 1594 613.278 1577.48 C 606.095 1542.02 599.155 1506.51 592.458 1470.96 C 587.398 1444.27 579.217 1411.58 575.708 1385.3 C 573.829 1379.01 572.957 1373.02 571.86 1366.56 z"></path><path transform="translate(0,0)" fill="rgb(254,112,139)" d="M 847.866 1483.02 C 884.616 1486.77 921.899 1474.66 954.476 1458.31 C 960.644 1463.21 968.287 1469.01 974.134 1474.19 C 972.084 1536.21 968.258 1600.57 965.5 1662.75 C 964.411 1687.56 963.107 1712.36 961.591 1737.14 C 961.302 1742.62 961.482 1765.71 959.31 1768.41 C 931.158 1767.17 893.346 1760.7 865.198 1756.25 L 854.215 1590.51 C 852.054 1558.48 847.779 1514.39 847.866 1483.02 z"></path><path transform="translate(0,0)" fill="rgb(254,112,139)" d="M 704.53 1419.37 C 707.743 1418.77 710.952 1418.16 714.157 1417.52 C 748.087 1452.13 782.379 1473.78 831.08 1482.43 C 830.871 1510.28 832.485 1539.62 833.748 1567.5 L 838.757 1673.73 C 839.345 1684.97 844.395 1748.12 843.214 1751.69 C 808.501 1744.72 774.447 1734.81 741.421 1722.05 C 726.651 1623.16 711.223 1519.02 704.53 1419.37 z"></path><path transform="translate(0,0)" fill="rgb(254,112,139)" d="M 1124.91 1513.6 C 1168.65 1508.97 1203.35 1489.16 1239.16 1465.71 C 1245.21 1468.2 1248.9 1470.11 1254.64 1473.17 C 1252.15 1496.33 1245.66 1527.95 1241.73 1551.41 L 1217.07 1701.69 C 1214.35 1718.49 1207.91 1746.69 1206.63 1762.14 C 1172.21 1767.19 1137.55 1770.5 1102.79 1772.04 C 1102.65 1752.35 1107.48 1720.15 1109.73 1699.62 C 1114 1659.3 1117.67 1618.93 1120.74 1578.5 C 1122.41 1557.34 1125.22 1534.68 1124.91 1513.6 z"></path><path transform="translate(0,0)" fill="rgb(254,112,139)" d="M 995.373 1488.42 C 1039.84 1511.88 1064.41 1516.55 1114.42 1515.81 C 1107.06 1581.14 1093.63 1699.83 1086.64 1770.38 C 1086.25 1770.77 1085.87 1771.16 1085.49 1771.55 L 1079.44 1772.79 C 1046.02 1773.67 1016.06 1772.49 982.797 1770.53 C 983.704 1729.61 987.045 1682.54 989.061 1641.08 L 995.373 1488.42 z"></path><path transform="translate(0,0)" fill="rgb(254,112,139)" d="M 575.708 1385.3 C 580.703 1387.68 576.71 1390.51 582.085 1393.4 C 624.727 1416.31 639.867 1430.28 689.024 1424.76 C 692.571 1505.93 703.999 1587.87 713.925 1668.54 C 714.793 1675.6 720.027 1709.09 718.932 1712.69 C 679.681 1696.7 634.481 1671.29 623.829 1626.89 C 619.901 1610.51 616.584 1594 613.278 1577.48 C 606.095 1542.02 599.155 1506.51 592.458 1470.96 C 587.398 1444.27 579.217 1411.58 575.708 1385.3 z"></path><path transform="translate(0,0)" fill="rgb(17,7,8)" d="M 1497.44 1420.1 L 1498.89 1419.88 C 1499.49 1421.99 1480.65 1496.7 1477.96 1503.24 L 1475.53 1504.25 C 1480.4 1482.68 1490.75 1440.51 1497.44 1420.1 z"></path><path transform="translate(0,0)" fill="rgb(36,12,14)" d="M 1318.87 1465.71 C 1328.88 1463.32 1365.66 1463.43 1375.56 1465.8 C 1355.6 1467.9 1338.71 1467.64 1318.87 1465.71 z"></path><path transform="translate(0,0)" fill="rgb(17,7,8)" d="M 1077.89 1490.71 C 1091.6 1488.55 1102.58 1488.21 1116.26 1490.73 C 1100.86 1491.99 1093.11 1491.89 1077.89 1490.71 z"></path><path transform="translate(0,0)" fill="rgb(36,12,14)" d="M 638.024 1401.64 C 644.028 1400.1 648.39 1399.37 654.535 1400.92 L 655.339 1402.36 L 654.898 1403.35 C 649.022 1403.18 643.831 1402.4 638.024 1401.64 z"></path><path transform="translate(0,0)" fill="rgb(254,112,139)" d="M 1270.52 1480.64 C 1291.61 1488.5 1309.75 1490.91 1331.92 1492.42 C 1323.45 1529.01 1315.68 1568.92 1305.14 1604.68 C 1294.81 1639.71 1278.6 1686.01 1260.8 1717.46 C 1252.7 1732.2 1246.35 1745.17 1231.65 1753.41 C 1236.58 1721.64 1239.16 1690.15 1243.65 1658.47 C 1251.95 1599.91 1259.43 1538.69 1270.52 1480.64 z"></path><path transform="translate(0,0)" fill="rgb(254,112,139)" d="M 514.546 1143.74 C 516.588 1138.55 518.739 1133.31 520.553 1128.05 C 537.836 1164.22 565.438 1189.81 603.487 1203.28 C 612.286 1206.37 621.384 1208.53 630.631 1209.73 C 641.466 1207.54 656.735 1207.2 667.487 1209.78 C 679.886 1208.3 685.741 1206.72 697.596 1202.66 C 720.302 1245.84 747.708 1270.52 795.161 1286.76 C 811.957 1292.5 851.64 1297.71 867.817 1292.4 C 867.585 1291.09 867.599 1291.86 868.095 1290.11 C 879.175 1287.75 889.714 1285.44 900.525 1281.91 C 905.688 1280.23 914.629 1275.47 919.08 1277.35 C 931.171 1272.26 939.906 1266.88 950.939 1260.06 C 987.981 1291.23 1024.17 1319.48 1075.51 1322.74 C 1086.27 1320.76 1100.77 1320.24 1111.39 1322.76 C 1158.2 1318.44 1193.08 1293.85 1228.57 1265.77 C 1239.54 1273.81 1251.83 1283.67 1263.59 1290.14 C 1326.36 1324.68 1396.53 1314.77 1448.68 1267.37 C 1454.46 1316.69 1474.1 1347.47 1519.31 1369.18 C 1473.37 1417.68 1419.8 1442.19 1352.37 1444.06 C 1350.68 1444.11 1348.99 1444.14 1347.29 1444.15 C 1316.28 1444.26 1290.08 1438.73 1261.11 1427.14 C 1251.82 1423.43 1242.93 1418.33 1233.97 1415.01 L 1232.91 1414.63 C 1218.42 1423.51 1207.4 1436.01 1189.93 1445.42 C 1124.66 1480.6 1053.23 1477.09 992.101 1435.03 C 979.576 1427.68 970.245 1413.51 956.911 1408.07 C 953.116 1407.39 946.341 1411.28 943.628 1413.08 C 917.598 1430.32 889.293 1438.5 857.934 1438.54 C 818.089 1438.6 777.648 1421.91 748.435 1394.84 C 739.146 1386.23 731.812 1376.34 722.87 1367.46 L 721.924 1366.53 C 718.224 1367.39 712.471 1369.37 708.984 1370.87 C 665.239 1389.75 613.195 1382.4 583.212 1343.28 C 573.138 1330.13 564.655 1313.75 561.048 1297.17 C 558.886 1287.24 558.414 1276.5 556.044 1266.4 L 555.786 1265.35 C 531.483 1253.64 522.346 1252.52 500.956 1232.19 C 496.54 1217.54 493.764 1192.78 490.641 1176.51 C 502.108 1163.91 506.272 1158.62 514.546 1143.74 z"></path><path transform="translate(0,0)" fill="rgb(252,77,96)" d="M 514.546 1143.74 C 516.588 1138.55 518.739 1133.31 520.553 1128.05 C 537.836 1164.22 565.438 1189.81 603.487 1203.28 C 612.286 1206.37 621.384 1208.53 630.631 1209.73 C 641.466 1207.54 656.735 1207.2 667.487 1209.78 C 679.886 1208.3 685.741 1206.72 697.596 1202.66 C 720.302 1245.84 747.708 1270.52 795.161 1286.76 C 811.957 1292.5 851.64 1297.71 867.817 1292.4 C 867.585 1291.09 867.599 1291.86 868.095 1290.11 C 879.175 1287.75 889.714 1285.44 900.525 1281.91 C 905.688 1280.23 914.629 1275.47 919.08 1277.35 C 931.171 1272.26 939.906 1266.88 950.939 1260.06 C 987.981 1291.23 1024.17 1319.48 1075.51 1322.74 C 1086.27 1320.76 1100.77 1320.24 1111.39 1322.76 C 1158.2 1318.44 1193.08 1293.85 1228.57 1265.77 C 1239.54 1273.81 1251.83 1283.67 1263.59 1290.14 C 1326.36 1324.68 1396.53 1314.77 1448.68 1267.37 C 1454.46 1316.69 1474.1 1347.47 1519.31 1369.18 C 1473.37 1417.68 1419.8 1442.19 1352.37 1444.06 C 1350.68 1444.11 1348.99 1444.14 1347.29 1444.15 C 1348.69 1434.83 1358.35 1425.42 1362.05 1417.4 C 1374.14 1391.2 1392.29 1351.64 1393.34 1323.34 C 1344.53 1337.91 1298.88 1332.37 1254.57 1306.55 C 1246.18 1301.66 1238.33 1294.77 1230.7 1288.73 C 1189.27 1319.82 1161.36 1337.8 1106.39 1343.34 C 1057.11 1348.3 1016.97 1329.64 976.52 1303.1 C 971.455 1299.78 958.494 1285.86 951.945 1280.48 L 950.963 1279.69 C 939.67 1284.88 927.13 1293.36 915.051 1299.07 C 882.132 1314.66 845.283 1317.15 809.879 1310.14 C 775.895 1303.41 740.974 1282.51 718.488 1256.32 C 710.648 1247.19 701.645 1233.22 694.73 1222.82 C 616.29 1244.82 555.856 1210.58 514.546 1143.74 z"></path><path transform="translate(0,0)" fill="rgb(17,7,8)" d="M 867.817 1292.4 C 867.585 1291.09 867.599 1291.86 868.095 1290.11 C 879.175 1287.75 889.714 1285.44 900.525 1281.91 C 905.688 1280.23 914.629 1275.47 919.08 1277.35 C 904.09 1284.06 884.346 1291.19 867.817 1292.4 z"></path><path transform="translate(0,0)" fill="rgb(36,12,14)" d="M 630.631 1209.73 C 641.466 1207.54 656.735 1207.2 667.487 1209.78 C 653.111 1211.03 644.96 1211.14 630.631 1209.73 z"></path><path transform="translate(0,0)" fill="rgb(36,12,14)" d="M 1075.51 1322.74 C 1086.27 1320.76 1100.77 1320.24 1111.39 1322.76 C 1096.45 1324.28 1090.59 1324.14 1075.51 1322.74 z"></path><path transform="translate(0,0)" fill="rgb(252,77,96)" d="M 1192.64 668.618 C 1189.49 667.144 1163.45 664.048 1157.72 662.854 C 1136.86 658.307 1116.51 651.695 1096.96 643.114 C 1052.69 623.259 1015.05 592.553 997.851 546.058 C 982.289 503.986 986.101 453.923 1004.81 413.514 C 1025.09 369.702 1062.21 335.948 1107.75 319.926 C 1160.44 300.974 1222.43 304.788 1273.04 328.657 C 1262.76 348.072 1256.13 369.353 1249.49 390.168 C 1242.64 385.584 1230.17 376.335 1223.03 385.196 C 1218.14 399.354 1238.67 409.812 1248.76 414.995 C 1273.23 427.567 1302.37 436.692 1328.99 424.968 C 1338.29 420.871 1348.07 413.112 1342.37 401.857 C 1338.56 394.689 1323.95 405.486 1318.18 404.168 C 1317.16 399.085 1333.53 367.35 1336.85 360.539 C 1371.92 385.32 1390.61 410.091 1409.37 447.877 C 1412.68 449.137 1411.36 447.947 1412.89 450.866 C 1423.6 471.161 1427.68 526.556 1420.05 547.864 L 1417.6 550.277 L 1417 551.655 C 1412.7 561.855 1410.74 573.191 1405.71 583.793 C 1384.76 627.997 1342.98 654.849 1296.07 664.807 C 1286.95 666.744 1276.78 667.354 1267.79 669.687 C 1262.08 677.197 1217.53 672.497 1207.42 672.419 C 1204.61 672.397 1194.21 671.935 1191.89 670.444 L 1192.64 668.618 z"></path><path transform="translate(0,0)" fill="rgb(36,12,14)" d="M 1409.37 447.877 C 1412.68 449.137 1411.36 447.947 1412.89 450.866 C 1423.6 471.161 1427.68 526.556 1420.05 547.864 L 1417.6 550.277 C 1424.87 509.517 1422.7 486.823 1409.37 447.877 z"></path><path transform="translate(0,0)" fill="rgb(36,12,14)" d="M 1192.64 668.618 C 1221.49 670.977 1238.88 671.722 1267.79 669.687 C 1262.08 677.197 1217.53 672.497 1207.42 672.419 C 1204.61 672.397 1194.21 671.935 1191.89 670.444 L 1192.64 668.618 z"></path><path transform="translate(0,0)" fill="rgb(254,254,251)" d="M 1125.18 358.325 C 1185.71 352.736 1167.78 421.929 1109.54 435.507 C 1044.98 439.808 1070.39 366.555 1125.18 358.325 z"></path><path transform="translate(0,0)" fill="url(#Gradient2)" d="M 313.917 568.257 C 325.842 551.121 341.35 555.711 346.281 574.902 C 349.414 587.099 351.362 598.684 353.565 611.05 L 363.819 669.428 C 366.226 683.859 367.922 703.075 376.205 715.511 C 380.999 722.708 394.57 728.295 403.432 727.161 C 446.047 721.705 430.385 669.351 424.823 639.898 L 415.056 589.6 C 412.213 574.984 401.926 544.649 424.658 541.93 C 432.59 540.981 439.619 546.866 441.042 554.404 C 452.307 614.072 470.14 674.787 477.256 734.97 C 480.004 770.942 471.354 804.652 447.87 832.53 C 436.386 846.163 425.07 851.622 411.985 862.346 C 409.576 864.32 422.035 919.482 422.813 925.11 C 425.574 945.069 431.052 965.224 433.444 984.932 C 412.112 981.504 402.181 980.967 380.903 985.892 C 378.929 972.981 361.41 873.885 356.204 870.231 C 348.969 865.153 335.648 864.387 327.047 861.384 C 299.451 851.748 274.262 830.453 260.4 804.682 C 254.924 794.502 251.255 782.99 247.441 772.088 L 246.303 772.33 C 240.066 764.19 238.565 729.833 237.486 717.494 L 238.995 716.734 C 235.743 689.33 232.094 661.975 228.05 634.678 C 225.755 619.29 222.686 603.759 221.742 588.281 C 221.218 579.696 228.149 572.915 236.529 572.719 C 240.251 572.602 243.843 574.09 246.392 576.805 C 252.68 583.467 254.747 608.063 256.247 617.909 C 259.562 639.33 262.73 660.773 265.75 682.237 C 267.772 696.5 268.953 714.256 275.565 727.243 C 278.448 732.907 285.372 737.762 291.136 739.949 C 313.21 748.33 333.991 731.034 333.227 708.025 C 332.829 696.053 331.073 684.445 329.421 672.508 C 326.208 650.404 322.823 628.325 319.267 606.274 C 317.409 594.444 314.718 579.889 313.917 568.257 z"></path><path transform="translate(0,0)" fill="rgb(36,12,14)" d="M 247.441 772.088 L 246.303 772.33 C 240.066 764.19 238.565 729.833 237.486 717.494 L 238.995 716.734 C 241.392 735.254 243.256 753.914 247.441 772.088 z"></path><path transform="translate(0,0)" fill="rgb(254,174,95)" d="M 1474.45 1240.68 C 1474.65 1240.23 1476.81 1231.4 1477.23 1230.03 C 1481.14 1217.49 1485.66 1207.01 1493.61 1196.53 C 1509 1175.96 1532.06 1162.51 1557.53 1159.24 C 1586.64 1155.3 1611.47 1164.83 1634.37 1182.14 C 1649.86 1195.23 1661.28 1211.9 1667.44 1231.56 C 1668.49 1234.89 1669.78 1245.75 1670.7 1247.63 L 1671.53 1246.21 C 1672.94 1252.01 1674.49 1281.37 1667.61 1282.86 C 1662.79 1295.47 1658.07 1308.09 1649.25 1318.59 C 1603.78 1372.77 1522.32 1371.35 1485.58 1307.96 L 1478.93 1294.4 L 1477.8 1294.4 C 1471.67 1288.34 1468.95 1244.47 1473.07 1238.58 L 1474.45 1240.68 z"></path><path transform="translate(0,0)" fill="rgb(254,146,69)" d="M 1634.37 1182.14 C 1649.86 1195.23 1661.28 1211.9 1667.44 1231.56 C 1668.49 1234.89 1669.78 1245.75 1670.7 1247.63 L 1671.53 1246.21 C 1672.94 1252.01 1674.49 1281.37 1667.61 1282.86 C 1662.79 1295.47 1658.07 1308.09 1649.25 1318.59 C 1603.78 1372.77 1522.32 1371.35 1485.58 1307.96 L 1488.61 1305.12 C 1493.8 1306 1495.91 1309.87 1500.75 1312.6 C 1523.32 1325.34 1556.19 1324.54 1580.14 1317.65 C 1602.92 1311.16 1622.12 1295.76 1633.38 1274.92 C 1644.86 1253.65 1646.19 1228.77 1639.67 1205.71 C 1637.56 1198.23 1634.43 1192.28 1632.43 1185.62 L 1634.37 1182.14 z"></path><path transform="translate(0,0)" fill="rgb(36,12,14)" d="M 1670.7 1247.63 L 1671.53 1246.21 C 1672.94 1252.01 1674.49 1281.37 1667.61 1282.86 C 1670.4 1270.21 1671.25 1260.48 1670.7 1247.63 z"></path><path transform="translate(0,0)" fill="rgb(36,12,14)" d="M 1478.93 1294.4 L 1477.8 1294.4 C 1471.67 1288.34 1468.95 1244.47 1473.07 1238.58 L 1474.45 1240.68 C 1472.29 1261.21 1472.85 1274.41 1478.93 1294.4 z"></path><path transform="translate(0,0)" fill="rgb(254,254,251)" d="M 1523.68 1193.8 C 1527.77 1194.38 1526.15 1193.51 1528.94 1196.03 C 1534.04 1209.78 1510.53 1239.63 1498.59 1246.35 C 1490.03 1244.89 1491.26 1236.43 1493.66 1230.15 C 1499.42 1215.07 1508.74 1200.96 1523.68 1193.8 z"></path><path transform="translate(0,0)" fill="rgb(254,112,139)" d="M 344.895 1145.77 C 335.584 1134.42 329.459 1120.79 327.148 1106.29 C 323.435 1083.68 328.998 1060.54 342.577 1042.09 C 355.394 1024.84 379.462 1009.78 400.801 1007.21 C 428.991 1003.82 450.565 1011.68 472.541 1028.53 C 489.064 1041.33 500.559 1062.21 503.046 1082.93 C 505.78 1105.56 499.258 1128.33 484.96 1146.08 C 470.212 1164.51 448.738 1176.32 425.275 1178.9 C 401.341 1181.64 377.318 1174.57 358.685 1159.3 C 354.141 1155.55 348.88 1150.18 344.895 1145.77 z"></path><path transform="translate(0,0)" fill="rgb(252,77,96)" d="M 472.541 1028.53 C 489.064 1041.33 500.559 1062.21 503.046 1082.93 C 505.78 1105.56 499.258 1128.33 484.96 1146.08 C 470.212 1164.51 448.738 1176.32 425.275 1178.9 C 401.341 1181.64 377.318 1174.57 358.685 1159.3 C 354.141 1155.55 348.88 1150.18 344.895 1145.77 L 345.572 1143.58 C 351.173 1140.97 368.275 1149.95 375.363 1151.51 C 442.813 1166.35 502.109 1121.22 478.786 1049.88 C 476.442 1042.71 469.524 1036.87 469.973 1029.86 L 472.541 1028.53 z"></path><path transform="translate(0,0)" fill="rgb(254,254,251)" d="M 386.893 1056.53 C 377.186 1060.91 365.389 1062.21 366.665 1047.04 C 367.852 1032.94 385.544 1009.9 401.362 1011.42 C 404.937 1011.76 406.624 1014.76 408.513 1017.46 L 409.632 1017.94 C 408.814 1032.29 402.663 1051.5 387.764 1057.23 L 386.893 1056.53 z"></path><path transform="translate(0,0)" fill="rgb(252,77,96)" d="M 408.513 1017.46 L 409.632 1017.94 C 408.814 1032.29 402.663 1051.5 387.764 1057.23 L 386.893 1056.53 C 401.633 1043.94 406.642 1036.92 408.513 1017.46 z"></path><path transform="translate(0,0)" fill="rgb(190,113,185)" d="M 407.683 1204.04 C 434.54 1204.37 446.123 1202.72 469.962 1189.21 C 472.284 1202.34 474.777 1215.44 477.44 1228.5 C 479.053 1236.3 480.764 1244.16 482.298 1251.93 C 485.987 1270.63 489.537 1292.77 478.508 1309.75 C 470.358 1322.29 450.843 1324.69 439.184 1315.76 C 427.646 1306.7 423.073 1290.93 419.935 1277.21 C 419.523 1275.41 417.981 1267.32 417.512 1266.26 L 416.035 1267.07 L 414.808 1266.02 C 412.928 1260.54 412.576 1248.13 413.624 1242.46 C 412.373 1230.89 409.828 1215.6 407.683 1204.04 z"></path><path transform="translate(0,0)" fill="rgb(36,12,14)" d="M 417.512 1266.26 L 416.035 1267.07 L 414.808 1266.02 C 412.928 1260.54 412.576 1248.13 413.624 1242.46 C 414.872 1249.96 416.585 1258.82 417.512 1266.26 z"></path><path transform="translate(0,0)" fill="rgb(203,166,73)" d="M 1367.96 242.064 C 1369.73 242.004 1372.47 241.85 1374.14 242.403 C 1397.91 250.257 1384.89 262.822 1374.41 273.51 C 1336.18 312.509 1308.85 357.255 1290.97 408.79 C 1285.18 409.443 1275.75 403.245 1270.75 400.244 C 1280.87 359.125 1324.79 254.136 1367.96 242.064 z"></path><path transform="translate(0,0)" fill="rgb(82,32,38)" d="M 1670.1 540.099 C 1703.77 538.211 1699.93 560.276 1714.53 583.482 C 1721.92 596.907 1738.01 609.544 1750.79 617.1 C 1824.37 660.589 1751.13 671.462 1722.73 703.132 C 1706.14 721.629 1706.18 750.899 1679.66 758.097 C 1653.28 757.689 1650.32 730.67 1638.61 713.232 C 1625.9 694.304 1606.17 682.5 1585.99 672.68 C 1573.28 666.496 1565.46 658.636 1568.73 643.389 C 1571.65 631.589 1592.04 622.282 1601.38 616.746 C 1614.16 609.178 1625.65 601.636 1635.07 590.178 C 1649.77 572.913 1648.8 549.754 1670.1 540.099 z"></path><path transform="translate(0,0)" fill="url(#Gradient1)" d="M 1676.28 565.606 C 1679.82 569.104 1689.1 588.468 1692.7 594.378 C 1708.18 619.73 1732.29 633.484 1756.31 649.348 C 1734.15 664.108 1722.07 667.761 1703.11 690.183 C 1694.21 700.706 1682.72 727.743 1676.07 732.672 C 1669.99 726.779 1665.23 714.464 1661.03 706.76 C 1643.01 673.714 1624.38 666.361 1595.12 649.51 C 1599.5 646.055 1619.43 634.376 1625.23 630.499 C 1656.87 609.35 1658.95 594.453 1675.68 566.586 L 1676.28 565.606 z"></path><path transform="translate(0,0)" fill="rgb(254,112,139)" d="M 1765.58 938.072 C 1781.47 941.192 1782.54 968.166 1793.47 980.265 C 1800.85 988.435 1829.66 995.482 1828.83 1006.49 C 1827.95 1018.1 1805.4 1020.84 1796.74 1029.24 C 1783.32 1042.26 1783.91 1061.33 1770.89 1073.48 C 1754.88 1071.76 1753.72 1045.92 1743.86 1033.55 C 1733.53 1020.58 1718.38 1021.41 1709.3 1009.72 C 1700.05 997.824 1734.49 988.539 1739.55 981.724 C 1751.39 970.907 1753.21 944.202 1765.58 938.072 z"></path><path transform="translate(0,0)" fill="rgb(254,112,139)" d="M 304.797 1355.71 C 305.335 1355.75 309.881 1356.22 309.951 1356.28 C 319.118 1363.11 319.421 1378.44 327.546 1386.49 C 334.22 1393.11 346.214 1393.43 347.5 1404.2 C 344.505 1412.61 332.582 1413.16 326.993 1418.22 C 317.201 1427.09 320.255 1439.61 309.242 1447.9 C 298.348 1446.32 299.526 1435.68 295.285 1427.27 C 289.795 1416.37 272.873 1414.08 268.088 1403.91 C 267.896 1391.62 283.877 1392.49 291.322 1382.25 C 297.588 1373.63 298.497 1363.28 304.797 1355.71 z"></path></svg>