<!-- Generated by SVGMaker - https://svgmaker.io -->
<!-- Prompt: Create a new variation of this SVG image, incorporating subtle differences in color scheme, shape details, and layout while maintaining the original style and theme for a cohesive visual update. -->
<!-- Quality: low -->
<!-- Type: edit -->
<!-- Created: 2026-05-06T12:12:36.724Z -->
<svg version="1.1" xmlns="http://www.w3.org/2000/svg" style="display: block;" viewBox="0 0 2048 2048" width="1024" height="1024" preserveAspectRatio="none"><defs><linearGradient id="Gradient1" gradientUnits="userSpaceOnUse" x1="457.91" y1="1111.7" x2="284.112" y2="1057.44"><stop class="stop0" offset="0" stop-opacity="1" stop-color="rgb(252,77,96)"></stop><stop class="stop1" offset="1" stop-opacity="1" stop-color="rgb(254,112,139)"></stop></linearGradient></defs><path transform="translate(0,0)" fill="rgb(82,32,38)" d="M 1406.63 188.36 C 1429.7 185.201 1457.69 193.727 1460.01 220.524 C 1462.84 253.212 1421.33 260.399 1401.24 277.702 C 1386.44 290.442 1373.37 302.031 1361.57 317.74 C 1421.68 361.293 1458.98 446.701 1447.73 519.571 C 1444.74 538.995 1438.46 563.258 1427.79 579.872 C 1443.2 589.4 1456.83 606.934 1467.13 621.642 C 1491.33 656.188 1501.4 703.233 1493.48 744.773 C 1549.38 774.246 1584.25 798.686 1616.96 856.135 C 1658.81 929.631 1650.12 1044.88 1627.13 1124.33 C 1638.04 1126.94 1645.88 1129.24 1656.14 1134.04 C 1686.32 1148.12 1709.68 1173.62 1721.07 1204.91 C 1732.19 1236.89 1730.39 1271.95 1716.05 1302.62 C 1701.31 1333.63 1674.82 1357.48 1642.44 1368.89 C 1609.57 1380.23 1573.59 1378.4 1542.05 1363.79 C 1537.81 1371.21 1526.72 1383.67 1524.79 1389.24 C 1518.35 1407.84 1513.31 1430.05 1508.46 1449.14 L 1480.65 1558.74 C 1469.47 1601.63 1456.45 1658.76 1431 1694.99 C 1385.75 1759.38 1265.07 1792.21 1191 1805.06 C 1053.91 1829.97 912.747 1819.66 780.737 1775.1 C 741.892 1761.92 703.679 1745.62 669.567 1722.55 C 618.059 1687.73 607.838 1628.58 597.176 1571.65 C 588.736 1524.4 580.913 1477.05 573.71 1429.6 C 570.543 1408.56 568.019 1387.1 564.638 1366.15 C 562.901 1355.39 551.378 1340.93 546.618 1330.23 C 539.182 1313.51 536.531 1297.87 533.514 1279.94 C 494.616 1262.75 464.557 1248.1 441.804 1209.11 C 445.635 1249.34 459.744 1316.37 401.492 1323.37 C 329.001 1332.08 337.529 1242.35 331.788 1192.86 C 323.673 1189.8 318.7 1187.82 311.034 1183.88 C 292.958 1173.98 276.077 1156.69 266.776 1138.27 C 253.563 1111.48 251.442 1080.56 260.874 1052.21 C 271.021 1022.02 292.473 999.248 320.656 985.062 C 316.848 953.331 315.246 921.113 312.682 889.242 C 311.636 876.245 311.931 860.945 308.331 848.515 C 307.132 844.373 304.649 841.822 301.25 839.303 C 296.19 835.553 290.157 832.84 284.829 829.431 C 266.98 818.011 250.783 804.49 238.769 786.864 C 230.048 774.069 224.148 759.868 220.427 744.866 C 212.499 712.899 195.157 550.819 200.605 523.515 C 202.898 512.019 208.416 501.297 218.515 494.855 C 228.019 488.792 240.912 486.854 251.841 489.52 C 263.278 492.31 271.521 500.73 275.985 511.409 C 283.378 529.094 286.005 615.05 287.171 639.091 C 287.634 648.643 286.553 663.768 292.091 671.85 C 293.462 673.851 295.717 675.748 298.235 675.919 C 300.529 676.074 302.077 675.255 303.654 673.693 C 306.438 670.935 307.59 665.363 307.863 661.622 C 308.508 652.747 306.954 643.158 306.589 634.238 C 305.138 598.817 299.954 562.357 301.343 526.987 C 301.837 514.409 304.295 502.388 314.198 493.689 C 322.76 486.168 335.544 482.433 346.905 483.449 C 359.704 484.592 371.329 492.912 377.085 504.276 C 390.721 531.196 390.943 658.7 400.689 667.721 C 402.51 669.406 404.215 670.36 406.779 669.993 C 409.086 669.663 411.255 667.938 412.712 666.19 C 414.681 663.829 415.965 660.656 416.092 657.577 C 416.552 646.405 414.506 634.316 413.432 623.175 C 410.967 597.606 407.865 571.93 406.267 546.294 C 405.218 529.475 404.6 509.739 416.879 496.481 C 423.963 488.832 434.32 485.007 444.637 484.948 C 454.466 484.892 465.566 488.445 472.375 495.801 C 477.364 501.191 480.413 508.54 482.322 515.546 C 486.668 531.488 487.215 549.007 488.934 565.387 C 493.519 609.089 498.076 652.37 496.168 696.445 C 494.47 735.659 480.156 773.258 450.857 800.065 C 440.704 809.354 428.789 816.714 418.9 826.153 C 416.593 828.355 414.707 830.367 414.079 833.59 C 411.868 844.931 414.5 859.33 415.245 870.897 C 416.525 891.627 417.909 912.35 419.397 933.066 C 420.551 948.788 422.292 965.937 422.01 981.586 C 450.385 993.746 463.284 1003.3 479.876 1030.45 C 466.878 984.912 475.148 897.941 489.374 852.03 C 510.889 782.598 552.901 725.363 614.55 686.09 C 632.527 674.638 645.254 670.019 662.959 660.713 C 666.561 651.277 668.944 641.562 672.929 632.007 C 714.169 533.13 820.002 475.226 920.353 453.614 C 932.121 451.08 945.749 448.266 957.61 447.48 C 958.571 427.028 968.515 396.81 977.669 378.554 C 1004.54 326.091 1051.2 286.484 1107.32 268.479 C 1164.77 249.851 1233.2 255.173 1287.03 282.746 C 1291.79 273.078 1300.77 260.647 1307.42 251.947 C 1333.1 218.353 1363.84 194.127 1406.63 188.36 z"></path><path transform="translate(0,0)" fill="rgb(254,254,251)" d="M 1140.91 1291.11 C 1130.87 1292.76 1120.74 1293.69 1110.58 1293.91 C 1067.59 1294.96 1026.13 1277.98 996.223 1247.1 C 987.907 1238.44 982.264 1228.56 973.972 1220 C 970.42 1215.31 964.673 1219.91 961.09 1223.23 C 891.878 1287.35 780.867 1288.8 723.145 1208.79 C 715.803 1199.6 711.416 1186.56 703.744 1178.02 C 700.824 1174.77 679.738 1180.37 674.718 1181.11 C 638.435 1186.51 601.508 1177.05 572.293 1154.86 C 527.929 1121.69 508.682 1070.25 501.633 1016.89 C 486.747 904.204 517.7 789.395 612.437 719.202 C 624.138 710.605 636.496 702.94 649.397 696.278 C 659.677 691.015 674.106 687.594 683.292 681.143 C 686.224 677.525 688.56 668.795 689.629 664.835 C 720.168 551.677 848.663 489.235 957.03 474.285 C 960.257 519.507 977.234 561.691 1008.33 595.102 L 1010.52 594.392 C 1016.03 597.781 1020.23 602.751 1024.23 607.737 C 1024.24 609.607 1024.44 609.13 1023.83 610.791 C 1031.13 618.889 1042.47 627.315 1051.46 633.505 C 1094.86 663.416 1149.45 681.047 1202.12 683.827 C 1266.62 687.23 1323.95 674.985 1377.67 638.206 C 1393.77 625.344 1401.13 619.041 1413.89 602.616 C 1448.45 635.584 1468.03 661.434 1470.16 712.005 C 1470.98 731.267 1467.08 744.578 1465.68 762.728 C 1632.06 829.51 1641.77 969.367 1602.74 1121.64 C 1553.45 1123.16 1514.48 1145.07 1489.96 1189.03 C 1479.42 1207.91 1478.72 1219.46 1473.66 1239.2 C 1425.45 1277.82 1341.72 1287.67 1286.77 1258.59 C 1280.24 1255.75 1276.98 1254.3 1270.99 1250.63 C 1265.66 1247.36 1254.01 1238.25 1248.92 1236.55 C 1245.98 1235.6 1242.8 1235.7 1239.93 1236.83 C 1234.36 1238.99 1221.9 1253.2 1215.9 1258.02 C 1202.27 1268.94 1190.33 1273.2 1176.31 1281.02 L 1175.95 1282.91 C 1169.93 1286.61 1147.4 1293.85 1140.97 1291.93 L 1140.91 1291.11 z"></path><path transform="translate(0,0)" fill="rgb(253,227,217)" d="M 1377.67 638.206 C 1393.77 625.344 1401.13 619.041 1413.89 602.616 C 1448.45 635.584 1468.03 661.434 1470.16 712.005 C 1470.98 731.267 1467.08 744.578 1465.68 762.728 C 1632.06 829.51 1641.77 969.367 1602.74 1121.64 C 1553.45 1123.16 1514.48 1145.07 1489.96 1189.03 C 1479.42 1207.91 1478.72 1219.46 1473.66 1239.2 C 1425.45 1277.82 1341.72 1287.67 1286.77 1258.59 L 1292.22 1258.84 C 1294.07 1256.8 1297.46 1252.55 1300.43 1252.34 C 1441.41 1242.06 1568.54 1105.75 1556.73 962.392 C 1551.5 891.914 1511.65 812.147 1442.88 785.1 C 1407.35 771.126 1419.6 772.824 1419.81 739.637 C 1420.05 701.667 1404.31 665.606 1377.67 638.206 z"></path><path transform="translate(0,0)" fill="rgb(36,12,14)" d="M 1140.91 1291.11 C 1153.95 1288.56 1163.66 1285.31 1176.31 1281.02 L 1175.95 1282.91 C 1169.93 1286.61 1147.4 1293.85 1140.97 1291.93 L 1140.91 1291.11 z"></path><path transform="translate(0,0)" fill="rgb(36,12,14)" d="M 1008.33 595.102 L 1010.52 594.392 C 1016.03 597.781 1020.23 602.751 1024.23 607.737 C 1024.24 609.607 1024.44 609.13 1023.83 610.791 C 1018.57 606.272 1013.15 600.219 1008.33 595.102 z"></path><path transform="translate(0,0)" fill="rgb(82,32,38)" d="M 945.397 998.172 C 967.951 996.623 998.277 1006.77 1021.37 1009.32 C 1033.53 1010.67 1048.43 1013.77 1060.42 1016.17 C 1105.08 1025.13 1097.61 1076.77 1076.06 1104 C 1067.54 1114.93 1060.31 1120.13 1048.69 1127.26 C 995.761 1154.09 925.269 1128.34 913.26 1066.66 C 907.979 1039.54 916.018 1007.62 945.397 998.172 z"></path><path transform="translate(0,0)" fill="rgb(254,112,139)" d="M 965.861 1064.65 L 965.937 1063.28 C 983.851 1054.96 1044.5 1059.2 1055.5 1073.96 L 1055.36 1075.26 C 1063.01 1095.27 1044.6 1107.88 1027.9 1113.69 C 1010.72 1119.67 989.562 1118.46 972.875 1111.38 C 965.875 1108.28 958.722 1100.68 953.484 1095.4 L 952.104 1095.62 C 946.562 1086.29 948.732 1069.77 960.824 1067.94 C 963.736 1066.87 963.354 1066.76 965.861 1064.65 z"></path><path transform="translate(0,0)" fill="rgb(17,7,8)" d="M 965.861 1064.65 L 965.937 1063.28 C 983.851 1054.96 1044.5 1059.2 1055.5 1073.96 L 1055.36 1075.26 C 1028.45 1060.22 995.694 1057.34 965.861 1064.65 z"></path><path transform="translate(0,0)" fill="rgb(36,12,14)" d="M 953.484 1095.4 L 952.104 1095.62 C 946.562 1086.29 948.732 1069.77 960.824 1067.94 C 950.869 1076.89 948.405 1082.48 953.484 1095.4 z"></path><path transform="translate(0,0)" fill="rgb(82,32,38)" d="M 779.794 891.515 C 819.528 885.132 856.895 912.223 863.184 951.972 C 869.473 991.721 842.295 1029.02 802.531 1035.22 C 762.9 1041.39 725.749 1014.33 719.48 974.709 C 713.212 935.092 740.193 897.877 779.794 891.515 z"></path><path transform="translate(0,0)" fill="rgb(254,254,251)" d="M 799.081 923.632 C 807.551 922.029 815.742 927.51 817.49 935.951 C 819.238 944.392 813.898 952.676 805.488 954.569 C 799.918 955.822 794.106 953.973 790.284 949.732 C 786.462 945.491 785.225 939.519 787.049 934.109 C 788.872 928.699 793.472 924.694 799.081 923.632 z"></path><path transform="translate(0,0)" fill="rgb(82,32,38)" d="M 1215.19 929.473 C 1254.58 925.929 1289.47 954.778 1293.4 994.134 C 1297.32 1033.49 1268.81 1068.66 1229.5 1072.97 C 1189.64 1077.33 1153.87 1048.34 1149.89 1008.44 C 1145.92 968.547 1175.25 933.065 1215.19 929.473 z"></path><path transform="translate(0,0)" fill="rgb(254,254,251)" d="M 1227.22 962.523 C 1235.72 959.86 1244.76 964.642 1247.34 973.168 C 1249.92 981.693 1245.05 990.687 1236.5 993.185 C 1228.07 995.649 1219.22 990.86 1216.67 982.45 C 1214.13 974.041 1218.83 965.151 1227.22 962.523 z"></path><path transform="translate(0,0)" fill="rgb(254,112,139)" d="M 1415.46 1118.29 C 1421.28 1151.03 1402.3 1183.1 1370.81 1193.76 C 1339.31 1204.42 1304.75 1190.47 1289.49 1160.92 C 1274.24 1131.38 1282.86 1095.12 1309.78 1075.61 C 1336.71 1056.1 1373.85 1059.19 1397.17 1082.89 C 1406.7 1092.57 1413.08 1104.91 1415.46 1118.29 z"></path><path transform="translate(0,0)" fill="rgb(252,77,96)" d="M 1397.17 1082.89 C 1406.7 1092.57 1413.08 1104.91 1415.46 1118.29 L 1413.84 1117.93 C 1413.15 1116.6 1412.75 1116.16 1412.77 1114.88 C 1413 1100.53 1400.01 1091.68 1397.17 1082.89 z"></path><path transform="translate(0,0)" fill="rgb(254,112,139)" d="M 629.369 992.723 C 663.128 987.886 694.45 1011.24 699.448 1044.98 C 704.447 1078.71 681.243 1110.14 647.531 1115.3 C 613.592 1120.5 581.899 1097.1 576.867 1063.14 C 571.834 1029.17 595.381 997.593 629.369 992.723 z"></path><path transform="translate(0,0)" fill="rgb(254,174,95)" d="M 833.422 611.126 C 866.772 609.395 963.414 675.111 912.01 699.879 C 898.409 700.855 889.774 698.654 877.152 691.782 C 854.652 678.846 827.449 659.331 818.096 634.091 C 813.563 621.858 822.724 614.281 833.422 611.126 z"></path><path transform="translate(0,0)" fill="rgb(254,174,95)" d="M 1388.08 872.042 C 1424.34 870.827 1489.93 947.9 1448.08 968.539 C 1420.12 972.404 1388.59 930.588 1378.09 908.379 C 1370.82 892.998 1371.42 879.369 1388.08 872.042 z"></path><path transform="translate(0,0)" fill="rgb(179,176,236)" d="M 1015.77 781.078 C 1042.81 779.467 1100.28 808.851 1109.4 837.188 C 1112.64 847.268 1101.47 854.004 1093.24 856.036 C 1063.64 857.052 963.5 805.415 1015.77 781.078 z"></path><path transform="translate(0,0)" fill="rgb(254,112,139)" d="M 1293.55 759.982 C 1314.72 758.016 1329.4 774.287 1319.33 789.506 C 1311.37 801.536 1258.22 829.2 1244.4 833.258 C 1240.21 834.329 1233.51 834.364 1229.96 832.123 C 1182.16 801.955 1276.87 765.918 1293.55 759.982 z"></path><path transform="translate(0,0)" fill="rgb(254,112,139)" d="M 732.27 767.038 C 736.758 767.007 740.976 767.554 745.067 769.581 C 749.978 771.991 753.655 776.347 755.205 781.593 C 760.355 799.012 739.228 814.048 727.012 822.664 C 714.622 831.402 698.988 844.202 684.31 848.204 C 667.911 848.462 655.614 835.774 662.952 821.63 C 671.955 804.274 715.229 773.34 732.27 767.038 z"></path><path transform="translate(0,0)" fill="rgb(252,77,96)" d="M 590.529 1383.13 C 594.331 1385.64 596.801 1387.15 600.838 1389.25 C 606.474 1388.39 625.513 1397.92 634.105 1400.05 C 644.056 1402.47 654.226 1403.88 664.46 1404.27 C 677.896 1404.92 691.359 1403.82 704.511 1401 C 710.381 1399.7 730.398 1393.48 734.533 1393.71 L 735.076 1394.91 L 734.475 1395.48 C 743.051 1410.36 766.825 1431.46 782.195 1438.4 L 783.584 1437.38 L 784.442 1437.84 C 797.249 1444.54 810.567 1449.44 824.47 1453.36 C 829.894 1454.89 849.544 1456.58 852.181 1458.58 L 849.097 1459.55 C 851.6 1459.82 853.511 1460.16 856.024 1459.84 L 856.726 1458.3 C 860.064 1457.87 869.113 1457.02 871.79 1459.03 L 872.003 1459.83 C 874.548 1460.15 875.121 1459.88 877.688 1459.44 L 875.942 1458.31 L 877.303 1457.32 C 900.158 1454.87 911.42 1451.58 932.832 1443.16 C 936.896 1441.56 938.904 1440.55 943.146 1441.23 C 950.211 1438.07 957.714 1433.28 964.441 1429.23 C 972.365 1436.91 997.672 1458.51 1008.03 1460.35 C 1013.09 1459.85 1038.27 1472.01 1046.02 1474.05 C 1051 1475.35 1062.17 1477.23 1066.11 1478.83 L 1066.07 1480.42 C 1077.14 1483.59 1120.66 1485.57 1129.91 1481.43 L 1129.64 1480.25 L 1130.46 1479.27 C 1137.5 1477.89 1145.74 1476.81 1152.51 1475.17 C 1160.97 1473.11 1184.71 1461.32 1192.14 1462.25 C 1205.65 1457.77 1227.71 1438.63 1237.39 1427.92 C 1242.37 1431.25 1244.74 1432.73 1250.13 1435.45 C 1253.04 1433.57 1260.79 1439.13 1264.48 1440.79 C 1287.2 1450.98 1312.08 1457.02 1336.86 1458.35 C 1358.66 1459.54 1380.52 1457.57 1401.75 1452.49 C 1410.04 1450.48 1454.51 1433.51 1457.16 1433.8 C 1471.16 1428.23 1480.99 1418.85 1492.34 1413.39 L 1493.06 1416.4 C 1494.08 1423.84 1443.61 1608.97 1438.2 1625.27 C 1433.13 1640.53 1427.15 1656.2 1418.72 1669.91 C 1416.95 1670.78 1417.71 1670.62 1416.55 1670.77 C 1391.68 1707.98 1371.56 1718.64 1332.37 1739.05 C 1330.9 1744.38 1293.76 1758.37 1286.93 1756.59 C 1268.58 1762 1250.1 1767 1231.52 1771.57 C 1200.93 1778.19 1172.29 1783.88 1141.18 1787.49 C 1135.48 1788.18 1126.04 1789.63 1120.62 1789.93 C 1084.17 1793.07 1055.83 1793.43 1019.34 1792.91 C 1013.01 1792.76 1006.16 1792.28 999.791 1791.96 C 964.087 1790.26 928.54 1786.12 893.399 1779.58 L 868.77 1774.57 C 833.805 1766.43 801.866 1757.37 768.372 1744.32 C 738.025 1733.94 707.409 1717.99 681.054 1699.73 C 657.072 1683.39 639.749 1650.89 633.459 1622.84 C 615.918 1544.61 602.616 1462.43 590.529 1383.13 z"></path><path transform="translate(0,0)" fill="rgb(254,112,139)" d="M 963.911 1455.06 C 970.741 1460.29 1007.19 1483.9 1013.85 1486.71 C 1013.33 1578.34 1004.83 1671.79 1001.26 1763.41 C 1000.89 1772.96 999.738 1782.32 999.791 1791.96 C 964.087 1790.26 928.54 1786.12 893.399 1779.58 C 891.609 1767.59 891.189 1750.15 890.554 1737.69 C 889.175 1714.21 888.132 1690.72 887.424 1667.21 C 885.099 1605.79 883.545 1544.35 882.762 1482.89 C 914.272 1477.52 935.419 1468.7 963.911 1455.06 z"></path><path transform="translate(0,0)" fill="rgb(254,112,139)" d="M 1031.15 1495.82 C 1079.68 1509.43 1118.47 1509.71 1167.31 1498.41 C 1164.47 1510.44 1162.74 1524.81 1160.71 1537.13 C 1156.43 1563.1 1153.03 1589.35 1148.77 1615.32 L 1132.12 1718.05 C 1128.44 1739.99 1122.9 1768.21 1120.62 1789.93 C 1084.17 1793.07 1055.83 1793.43 1019.34 1792.91 C 1024.71 1693.94 1028.65 1594.9 1031.15 1495.82 z"></path><path transform="translate(0,0)" fill="rgb(254,112,139)" d="M 768.372 1744.32 C 764.637 1718.29 762.234 1692.1 758.784 1666.12 C 753.396 1625.55 748.573 1585.41 744.933 1544.59 L 737.864 1460.47 C 737.036 1450.73 736.474 1436.21 735.159 1426.96 C 763.097 1454.92 824.507 1479.1 862.855 1483.6 C 862.791 1515.73 863.131 1547.79 864.268 1579.91 C 866.56 1644.68 865.816 1709.83 868.77 1774.57 C 833.805 1766.43 801.866 1757.37 768.372 1744.32 z"></path><path transform="translate(0,0)" fill="rgb(254,112,139)" d="M 1243 1455.73 C 1264.6 1470.62 1280.69 1474.36 1305.53 1480.71 C 1301.5 1502.71 1294.38 1527.92 1289.04 1549.94 C 1276.1 1604.4 1262.23 1658.65 1247.43 1712.64 C 1242.53 1731.24 1235.46 1753.37 1231.52 1771.57 C 1200.93 1778.19 1172.29 1783.88 1141.18 1787.49 C 1141.21 1777.6 1144.81 1759.25 1146.17 1748.89 C 1149.82 1720.99 1155.14 1693.09 1159.57 1665.35 C 1168.49 1609.38 1174.95 1551.62 1184.82 1495.88 C 1208.07 1482.53 1222.2 1472.67 1243 1455.73 z"></path><path transform="translate(0,0)" fill="rgb(36,12,14)" d="M 1493.06 1416.4 C 1494.08 1423.84 1443.61 1608.97 1438.2 1625.27 C 1433.13 1640.53 1427.15 1656.2 1418.72 1669.91 C 1416.95 1670.78 1417.71 1670.62 1416.55 1670.77 C 1418.6 1664.46 1424.8 1654.28 1427.67 1646.88 C 1448.98 1591.75 1460.26 1533.05 1475.94 1476.19 C 1480.47 1459.73 1486.01 1430.92 1493.06 1416.4 z"></path><path transform="translate(0,0)" fill="rgb(36,12,14)" d="M 1250.13 1435.45 C 1253.04 1433.57 1260.79 1439.13 1264.48 1440.79 C 1287.2 1450.98 1312.08 1457.02 1336.86 1458.35 C 1358.66 1459.54 1380.52 1457.57 1401.75 1452.49 C 1410.04 1450.48 1454.51 1433.51 1457.16 1433.8 C 1451.41 1437.51 1443.7 1441.02 1437.32 1443.53 C 1375.41 1467.88 1308.91 1468.17 1250.13 1435.45 z"></path><path transform="translate(0,0)" fill="rgb(36,12,14)" d="M 600.838 1389.25 C 606.474 1388.39 625.513 1397.92 634.105 1400.05 C 644.056 1402.47 654.226 1403.88 664.46 1404.27 C 677.896 1404.92 691.359 1403.82 704.511 1401 C 710.381 1399.7 730.398 1393.48 734.533 1393.71 L 735.076 1394.91 L 734.475 1395.48 C 731.232 1395.1 715.261 1401.18 710.5 1402.23 C 670.962 1410.9 636.562 1407.29 600.838 1389.25 z"></path><path transform="translate(0,0)" fill="rgb(36,12,14)" d="M 782.195 1438.4 L 783.584 1437.38 L 784.442 1437.84 C 797.249 1444.54 810.567 1449.44 824.47 1453.36 C 829.894 1454.89 849.544 1456.58 852.181 1458.58 L 849.097 1459.55 C 823.702 1457.09 804.448 1450.6 782.195 1438.4 z"></path><path transform="translate(0,0)" fill="rgb(36,12,14)" d="M 877.688 1459.44 L 875.942 1458.31 L 877.303 1457.32 C 900.158 1454.87 911.42 1451.58 932.832 1443.16 C 936.896 1441.56 938.904 1440.55 943.146 1441.23 C 923.779 1450.17 899.14 1458.23 877.688 1459.44 z"></path><path transform="translate(0,0)" fill="rgb(36,12,14)" d="M 1129.91 1481.43 L 1129.64 1480.25 L 1130.46 1479.27 C 1137.5 1477.89 1145.74 1476.81 1152.51 1475.17 C 1160.97 1473.11 1184.71 1461.32 1192.14 1462.25 C 1172.65 1471.64 1151.5 1478.93 1129.91 1481.43 z"></path><path transform="translate(0,0)" fill="rgb(36,12,14)" d="M 1008.03 1460.35 C 1013.09 1459.85 1038.27 1472.01 1046.02 1474.05 C 1051 1475.35 1062.17 1477.23 1066.11 1478.83 L 1066.07 1480.42 C 1050.48 1478.53 1020.89 1469.1 1008.03 1460.35 z"></path><path transform="translate(0,0)" fill="rgb(36,12,14)" d="M 1332.37 1739.05 C 1330.9 1744.38 1293.76 1758.37 1286.93 1756.59 C 1303.15 1751.59 1316.79 1745.71 1332.37 1739.05 z"></path><path transform="translate(0,0)" fill="rgb(17,7,8)" d="M 856.024 1459.84 L 856.726 1458.3 C 860.064 1457.87 869.113 1457.02 871.79 1459.03 L 872.003 1459.83 C 867.073 1460.09 861.043 1459.88 856.024 1459.84 z"></path><path transform="translate(0,0)" fill="rgb(254,112,139)" d="M 489.538 1092.67 C 490.253 1089.04 490.904 1085.4 491.49 1081.75 C 503.156 1119.3 530.386 1157.9 564.899 1179.23 C 565.221 1179.35 565.543 1179.46 565.865 1179.58 C 567.82 1179.54 568.641 1179.6 570.336 1180.54 C 601.335 1197.72 636.302 1209.18 672.024 1203.01 C 676.11 1202.31 684.21 1200.56 687.884 1202.04 C 691.664 1205.59 699.018 1218.55 702.486 1223.72 C 711.049 1236.5 743.068 1267.09 756.976 1271.62 C 766.073 1272.78 786.46 1284.14 797.511 1286.62 C 802.287 1287.7 816.113 1289.53 818.534 1291.6 L 817.296 1292.51 C 826.255 1294.3 860.607 1295.48 867.941 1292.38 L 867.648 1291.23 C 869.619 1289.53 881.814 1288.68 886.211 1287.64 C 896.497 1285.21 918.233 1274.76 927.097 1274.75 C 938.346 1270.63 956.463 1258 965.571 1249.98 C 979.571 1265.88 998.752 1285.27 1018.2 1294.37 L 1019.54 1293.41 C 1033.57 1299.8 1047.41 1307.13 1062.65 1309.9 C 1068.01 1310.87 1073.59 1312.3 1078.93 1313.47 C 1079.3 1315.01 1079.34 1314.37 1079.16 1315.38 C 1088.15 1319.62 1132.18 1317.86 1143.16 1314.36 L 1144.09 1312.49 C 1153.86 1309.84 1163.6 1307.15 1173.33 1304.36 C 1179.89 1302.47 1190.72 1297.02 1197.05 1297.82 C 1214.72 1290.8 1233.5 1276.55 1247.78 1264.28 C 1253 1267.86 1259.12 1272.29 1264.87 1274.66 C 1268.07 1274.42 1314.2 1291.66 1319.23 1294.54 C 1341.18 1302.84 1399.76 1299.23 1422.18 1290.44 C 1422.3 1289.71 1422.78 1289.09 1423.12 1288.43 C 1431.28 1285.38 1454.77 1274.57 1461.28 1274.7 C 1466.02 1272.94 1469.16 1270.86 1473.48 1268.31 C 1474.32 1272.24 1475.72 1280.05 1477.08 1283.47 C 1478.76 1284.41 1489.72 1312.06 1492.13 1316.57 C 1495.94 1323.7 1519.54 1346.58 1520.05 1349.24 C 1520.18 1363.25 1473.02 1398.46 1460.62 1405.39 C 1453.71 1409.26 1442.8 1414.04 1436.87 1418.41 C 1432.76 1423.71 1407.62 1432.8 1400.89 1430.61 C 1393.89 1432.08 1382.28 1434.79 1375.58 1434.87 C 1335.34 1440.07 1298.32 1434.47 1262.31 1414.64 C 1252.1 1409.02 1244.45 1402.15 1235.02 1396.4 C 1226.78 1401.79 1217.6 1414.58 1209.29 1422.1 C 1196.58 1433.6 1186.52 1437 1173.36 1445.07 L 1172.9 1446.84 C 1162.62 1452.75 1150.29 1456.3 1138.54 1457.61 C 1137.62 1457.26 1136.48 1456.9 1135.67 1456.42 C 1085.91 1463.08 1038.53 1458.08 998.7 1425.74 C 994.777 1422.56 990.189 1418.4 986.081 1415.62 L 984.898 1414.83 C 980.982 1413.67 971.174 1404.37 970.304 1400.39 C 966.763 1397.53 962.86 1399.84 959.882 1402.29 C 899.195 1452.22 800.418 1448.32 754.513 1380.55 C 740.986 1360.58 743.962 1363.43 721.905 1373.27 C 664.378 1398.91 586.059 1373.16 565.004 1310.77 C 559.319 1294.06 558.124 1281.86 556.298 1264.51 C 546.523 1258.17 535.509 1255.88 525.086 1250.92 C 492.572 1235.43 471.665 1216.55 453.03 1186.42 C 449.683 1180.43 446.712 1173.68 443.804 1167.41 C 458.507 1155.77 468.738 1146.18 477.132 1129.04 C 476.381 1121.55 486.274 1104.89 486.92 1096.28 C 487.058 1094.44 487.464 1092.62 488.404 1091.01 L 489.538 1092.67 z"></path><path transform="translate(0,0)" fill="rgb(252,77,96)" d="M 489.538 1092.67 C 490.253 1089.04 490.904 1085.4 491.49 1081.75 C 503.156 1119.3 530.386 1157.9 564.899 1179.23 C 565.221 1179.35 565.543 1179.46 565.865 1179.58 C 567.82 1179.54 568.641 1179.6 570.336 1180.54 C 601.335 1197.72 636.302 1209.18 672.024 1203.01 C 676.11 1202.31 684.21 1200.56 687.884 1202.04 C 691.664 1205.59 699.018 1218.55 702.486 1223.72 C 711.049 1236.5 743.068 1267.09 756.976 1271.62 C 766.073 1272.78 786.46 1284.14 797.511 1286.62 C 802.287 1287.7 816.113 1289.53 818.534 1291.6 L 817.296 1292.51 C 826.255 1294.3 860.607 1295.48 867.941 1292.38 L 867.648 1291.23 C 869.619 1289.53 881.814 1288.68 886.211 1287.64 C 896.497 1285.21 918.233 1274.76 927.097 1274.75 C 938.346 1270.63 956.463 1258 965.571 1249.98 C 979.571 1265.88 998.752 1285.27 1018.2 1294.37 L 1019.54 1293.41 C 1033.57 1299.8 1047.41 1307.13 1062.65 1309.9 C 1068.01 1310.87 1073.59 1312.3 1078.93 1313.47 C 1079.3 1315.01 1079.34 1314.37 1079.16 1315.38 C 1088.15 1319.62 1132.18 1317.86 1143.16 1314.36 L 1144.09 1312.49 C 1153.86 1309.84 1163.6 1307.15 1173.33 1304.36 C 1179.89 1302.47 1190.72 1297.02 1197.05 1297.82 C 1214.72 1290.8 1233.5 1276.55 1247.78 1264.28 C 1253 1267.86 1259.12 1272.29 1264.87 1274.66 C 1268.07 1274.42 1314.2 1291.66 1319.23 1294.54 C 1341.18 1302.84 1399.76 1299.23 1422.18 1290.44 C 1422.3 1289.71 1422.78 1289.09 1423.12 1288.43 C 1431.28 1285.38 1454.77 1274.57 1461.28 1274.7 C 1466.02 1272.94 1469.16 1270.86 1473.48 1268.31 C 1474.32 1272.24 1475.72 1280.05 1477.08 1283.47 C 1478.76 1284.41 1489.72 1312.06 1492.13 1316.57 C 1495.94 1323.7 1519.54 1346.58 1520.05 1349.24 C 1520.18 1363.25 1473.02 1398.46 1460.62 1405.39 C 1453.71 1409.26 1442.8 1414.04 1436.87 1418.41 C 1432.76 1423.71 1407.62 1432.8 1400.89 1430.61 C 1393.89 1432.08 1382.28 1434.79 1375.58 1434.87 C 1376.45 1429.66 1380.97 1421.68 1383.72 1417.04 C 1404.02 1382.81 1412.35 1349.34 1421.16 1310.99 C 1355.9 1325.14 1309.36 1319.25 1249.57 1288.95 C 1241.22 1294.06 1234.31 1299.56 1225.23 1304.61 C 1194.18 1321.89 1156.96 1335.39 1121.26 1336.82 C 1057.68 1339.37 1010.71 1315.31 964.894 1274.22 C 922.955 1304.19 880.562 1316.98 828.983 1311.96 C 765.334 1305.78 725.832 1270.39 687.339 1222.71 C 624.403 1232.56 569.677 1209.04 525.814 1163.95 C 516.104 1153.97 508.424 1141.06 499.14 1130.37 C 490.033 1147.45 471.612 1178.58 453.03 1186.42 C 449.683 1180.43 446.712 1173.68 443.804 1167.41 C 458.507 1155.77 468.738 1146.18 477.132 1129.04 C 476.381 1121.55 486.274 1104.89 486.92 1096.28 C 487.058 1094.44 487.464 1092.62 488.404 1091.01 L 489.538 1092.67 z"></path><path transform="translate(0,0)" fill="rgb(36,12,14)" d="M 565.865 1179.58 C 567.82 1179.54 568.641 1179.6 570.336 1180.54 C 601.335 1197.72 636.302 1209.18 672.024 1203.01 C 676.11 1202.31 684.21 1200.56 687.884 1202.04 C 650.807 1215.99 597.71 1200.45 565.865 1179.58 z"></path><path transform="translate(0,0)" fill="rgb(17,7,8)" d="M 1477.08 1283.47 C 1478.76 1284.41 1489.72 1312.06 1492.13 1316.57 C 1495.94 1323.7 1519.54 1346.58 1520.05 1349.24 C 1499.87 1337.65 1482.39 1305.53 1477.08 1283.47 z"></path><path transform="translate(0,0)" fill="rgb(36,12,14)" d="M 1018.2 1294.37 L 1019.54 1293.41 C 1033.57 1299.8 1047.41 1307.13 1062.65 1309.9 C 1068.01 1310.87 1073.59 1312.3 1078.93 1313.47 C 1079.3 1315.01 1079.34 1314.37 1079.16 1315.38 C 1057.02 1312.57 1037.57 1305.11 1018.2 1294.37 z"></path><path transform="translate(0,0)" fill="rgb(17,7,8)" d="M 867.941 1292.38 L 867.648 1291.23 C 869.619 1289.53 881.814 1288.68 886.211 1287.64 C 896.497 1285.21 918.233 1274.76 927.097 1274.75 C 910.485 1282.76 886.547 1291.42 867.941 1292.38 z"></path><path transform="translate(0,0)" fill="rgb(36,12,14)" d="M 756.976 1271.62 C 766.073 1272.78 786.46 1284.14 797.511 1286.62 C 802.287 1287.7 816.113 1289.53 818.534 1291.6 L 817.296 1292.51 C 798.133 1290.48 773.497 1281.39 756.976 1271.62 z"></path><path transform="translate(0,0)" fill="rgb(36,12,14)" d="M 1143.16 1314.36 L 1144.09 1312.49 C 1153.86 1309.84 1163.6 1307.15 1173.33 1304.36 C 1179.89 1302.47 1190.72 1297.02 1197.05 1297.82 C 1184.57 1303.5 1156.71 1313.2 1143.16 1314.36 z"></path><path transform="translate(0,0)" fill="rgb(36,12,14)" d="M 1264.87 1274.66 C 1268.07 1274.42 1314.2 1291.66 1319.23 1294.54 C 1300.18 1290.78 1281.84 1284.07 1264.87 1274.66 z"></path><path transform="translate(0,0)" fill="rgb(36,12,14)" d="M 1422.18 1290.44 C 1422.3 1289.71 1422.78 1289.09 1423.12 1288.43 C 1431.28 1285.38 1454.77 1274.57 1461.28 1274.7 C 1451.49 1280.18 1433.36 1287.91 1422.18 1290.44 z"></path><path transform="translate(0,0)" fill="rgb(36,12,14)" d="M 477.132 1129.04 C 476.381 1121.55 486.274 1104.89 486.92 1096.28 C 487.058 1094.44 487.464 1092.62 488.404 1091.01 L 489.538 1092.67 C 487.142 1106 483.8 1117.1 477.132 1129.04 z"></path><path transform="translate(0,0)" fill="rgb(36,12,14)" d="M 1400.89 1430.61 C 1413.33 1427.3 1424.89 1422.98 1436.87 1418.41 C 1432.76 1423.71 1407.62 1432.8 1400.89 1430.61 z"></path><path transform="translate(0,0)" fill="rgb(36,12,14)" d="M 1173.36 1445.07 L 1172.9 1446.84 C 1162.62 1452.75 1150.29 1456.3 1138.54 1457.61 C 1137.62 1457.26 1136.48 1456.9 1135.67 1456.42 C 1150.84 1453.4 1159.14 1450.5 1173.36 1445.07 z"></path><path transform="translate(0,0)" fill="rgb(17,7,8)" d="M 970.304 1400.39 C 975.364 1404.03 981.08 1409.88 984.898 1414.83 C 980.982 1413.67 971.174 1404.37 970.304 1400.39 z"></path><path transform="translate(0,0)" fill="rgb(254,112,139)" d="M 1195.89 282.744 L 1196.66 281.03 C 1212.96 280.738 1257.4 290.895 1272.1 301.214 C 1273.01 301.85 1273.74 303.627 1273.16 304.971 C 1269.39 313.698 1263.72 327.586 1259 335.25 L 1257.62 335.674 C 1253.52 341.406 1243.96 350.025 1242.81 352.049 L 1242.6 353.547 C 1241.8 359.099 1239.39 363.601 1239.98 369.448 C 1242.71 396.421 1273.86 404.958 1296.74 404.032 C 1301.82 403.826 1307.8 399.968 1312.98 400.894 C 1329.54 390.677 1319.43 382.77 1324.95 371.41 C 1330.24 360.54 1338.18 347.983 1344.65 337.589 C 1347.46 339.835 1350.31 342.026 1353.21 344.161 C 1360.01 345.382 1380.2 365.501 1380.52 372.018 C 1384.76 377.874 1392.34 389.234 1396.61 394.318 C 1408.44 398.168 1423.94 458.016 1425.1 470.582 C 1423.83 472.026 1424.53 471.663 1423.25 472.066 C 1423.32 473.465 1423.16 474.688 1423.71 475.749 L 1425.35 475.323 C 1426.6 481.671 1424.69 487.508 1425.38 493.592 C 1427.12 509.15 1420.83 552.43 1408.73 562.632 C 1403.98 567.402 1398.89 579.936 1394.39 586.053 C 1377.08 609.609 1356.54 623.452 1331.19 637.207 L 1332.01 638.694 C 1321.44 643.342 1289.09 654.802 1278.74 654.616 L 1276.85 653.394 C 1168.07 671.309 1052.23 637.754 998.416 534.762 C 997.868 534.687 996.801 534.158 996.228 533.911 C 989.376 523.051 986.429 510.175 984.079 497.657 L 985.579 496.846 C 982.689 479.11 981.862 466.046 982.674 448.029 L 981.31 445.837 C 980.759 435.765 991.981 390.977 1000.34 388.073 C 1003.32 383.67 1007.15 376.36 1010.37 371.335 C 1018.36 359.057 1027.74 347.738 1038.31 337.598 C 1084.77 292.945 1133.27 281.244 1195.89 282.744 z"></path><path transform="translate(0,0)" fill="rgb(36,12,14)" d="M 1195.89 282.744 L 1196.66 281.03 C 1212.96 280.738 1257.4 290.895 1272.1 301.214 C 1273.01 301.85 1273.74 303.627 1273.16 304.971 C 1269.39 313.698 1263.72 327.586 1259 335.25 L 1257.62 335.674 C 1258.16 330.629 1269.59 308.566 1272.45 302.915 C 1244.68 290.432 1225.61 286.151 1195.89 282.744 z"></path><path transform="translate(0,0)" fill="rgb(17,7,8)" d="M 1242.81 352.049 L 1242.6 353.547 C 1241.8 359.099 1239.39 363.601 1239.98 369.448 C 1242.71 396.421 1273.86 404.958 1296.74 404.032 C 1301.82 403.826 1307.8 399.968 1312.98 400.894 C 1281.63 420.164 1218.18 387.579 1242.81 352.049 z"></path><path transform="translate(0,0)" fill="rgb(36,12,14)" d="M 1423.71 475.749 L 1425.35 475.323 C 1426.6 481.671 1424.69 487.508 1425.38 493.592 C 1427.12 509.15 1420.83 552.43 1408.73 562.632 C 1422.45 524.165 1424.83 517.457 1423.71 475.749 z"></path><path transform="translate(0,0)" fill="rgb(17,7,8)" d="M 1396.61 394.318 C 1408.44 398.168 1423.94 458.016 1425.1 470.582 C 1423.83 472.026 1424.53 471.663 1423.25 472.066 C 1419.4 440.615 1411.21 421.841 1396.61 394.318 z"></path><path transform="translate(0,0)" fill="rgb(36,12,14)" d="M 982.674 448.029 L 981.31 445.837 C 980.759 435.765 991.981 390.977 1000.34 388.073 C 991.142 409.357 985.144 424.429 982.674 448.029 z"></path><path transform="translate(0,0)" fill="rgb(36,12,14)" d="M 1331.19 637.207 L 1332.01 638.694 C 1321.44 643.342 1289.09 654.802 1278.74 654.616 L 1276.85 653.394 C 1295.59 649.675 1313.38 643.992 1331.19 637.207 z"></path><path transform="translate(0,0)" fill="rgb(36,12,14)" d="M 998.416 534.762 C 997.868 534.687 996.801 534.158 996.228 533.911 C 989.376 523.051 986.429 510.175 984.079 497.657 L 985.579 496.846 C 989.013 511.463 992.388 520.962 998.416 534.762 z"></path><path transform="translate(0,0)" fill="rgb(17,7,8)" d="M 1353.21 344.161 C 1360.01 345.382 1380.2 365.501 1380.52 372.018 C 1371.97 361.859 1362.89 353.151 1353.21 344.161 z"></path><path transform="translate(0,0)" fill="rgb(253,227,217)" d="M 1116.42 332.387 C 1149.86 335.506 1138.52 373.144 1123.61 390.189 C 1110.48 405.205 1102.78 413.329 1082.18 415.779 C 1070.37 414.374 1065.87 409.986 1060.15 399.844 C 1058.57 368.355 1085.23 336.127 1116.42 332.387 z"></path><path transform="translate(0,0)" fill="rgb(190,113,185)" d="M 336.935 508.12 C 341.5 507.888 348.621 507.226 352.343 510.125 C 362.333 517.905 362.072 541.034 363.375 552.979 L 370.824 620.79 C 373.183 644.312 370.599 695.691 413.561 688.035 C 420.807 686.744 431.959 678.325 434.98 671.045 C 445.982 644.525 419.834 532.833 430.852 515.792 C 433.564 511.589 437.953 508.757 442.9 508.017 C 446.97 507.43 451.366 508.417 454.515 511.128 C 465.971 520.991 469.845 596.842 471.014 613.005 C 472.481 631.829 473.277 650.699 473.403 669.58 C 473.964 712.094 471.528 743.337 441.067 776.043 C 428.14 789.922 413.234 798.373 400.82 812.029 C 397.437 815.751 392.523 824.022 391.992 829.012 C 390.261 845.274 392.247 865.5 393.239 881.921 C 394.926 912.988 397.134 944.024 399.862 975.016 C 388.246 972.685 380.776 972.127 368.991 972.201 C 358.185 973.181 352.661 974.164 342.144 976.782 C 337.726 948.527 336.836 851.751 328.015 833.566 C 324.356 826.023 315.507 821.164 308.672 816.905 C 288.814 804.532 266.439 790.066 254.771 769.045 C 249.889 760.251 245.597 750.801 243.246 740.985 C 235.969 710.589 217.493 546.555 224.153 524.75 C 225.648 519.856 227.667 516.525 232.412 514.261 C 236.686 512.196 241.62 511.975 246.062 513.649 C 250.45 515.317 254.202 518.943 255.912 523.342 C 259.241 531.906 258.824 544.606 259.431 553.898 C 260.841 575.514 263.014 663.366 269.961 677.326 C 273.803 685.047 280.817 691.489 289.042 694.212 C 296.673 696.74 304.404 695.683 311.468 692.007 C 319.784 687.579 325.938 679.956 328.513 670.894 C 337.042 640.374 317.322 553.256 325.702 518.049 C 326.9 513.015 333.079 509.911 336.935 508.12 z"></path><path transform="translate(0,0)" fill="rgb(254,174,95)" d="M 1581.13 1148.23 C 1608.02 1142.83 1630.89 1148.09 1654.64 1161.02 C 1674.16 1173.4 1680.92 1181.87 1693.53 1201.29 C 1697.52 1202.95 1704.12 1217.24 1701.56 1222.26 C 1705.1 1242.58 1705.59 1258.56 1699.94 1278.4 C 1683.59 1335.75 1614.95 1370.64 1559.76 1345.03 C 1543.13 1339.06 1529.8 1328.41 1519.28 1314.62 C 1516.44 1310.9 1513.41 1306.15 1510.34 1302.88 L 1509.28 1302.66 C 1504.75 1298.37 1496.32 1279.17 1499.48 1272.89 C 1495.22 1243.73 1498.62 1220.83 1514.03 1195.75 C 1528.49 1170.34 1553.09 1154.77 1581.13 1148.23 z"></path><path transform="translate(0,0)" fill="rgb(254,146,69)" d="M 1654.64 1161.02 C 1674.16 1173.4 1680.92 1181.87 1693.53 1201.29 C 1697.52 1202.95 1704.12 1217.24 1701.56 1222.26 C 1705.1 1242.58 1705.59 1258.56 1699.94 1278.4 C 1683.59 1335.75 1614.95 1370.64 1559.76 1345.03 C 1578.73 1339.71 1595.26 1338.26 1612.9 1326.53 C 1656.13 1297.77 1675.46 1243.62 1666.68 1193.33 C 1664.97 1183.52 1652.76 1169.41 1654.64 1161.02 z"></path><path transform="translate(0,0)" fill="rgb(36,12,14)" d="M 1693.53 1201.29 C 1697.52 1202.95 1704.12 1217.24 1701.56 1222.26 C 1699.44 1215.56 1696.23 1207.85 1693.53 1201.29 z"></path><path transform="translate(0,0)" fill="rgb(253,227,217)" d="M 1514.03 1195.75 C 1528.49 1170.34 1553.09 1154.77 1581.13 1148.23 C 1584.91 1155.75 1586.29 1171.29 1585.17 1179.55 C 1580.78 1211.85 1556.76 1237.12 1524.67 1241.2 C 1500.09 1227.46 1521.08 1207.65 1514.03 1195.75 z"></path><path transform="translate(0,0)" fill="rgb(36,12,14)" d="M 1499.48 1272.89 C 1502.32 1284.49 1505.45 1291.97 1510.34 1302.88 L 1509.28 1302.66 C 1504.75 1298.37 1496.32 1279.17 1499.48 1272.89 z"></path><path transform="translate(0,0)" fill="url(#Gradient1)" d="M 330.883 1005.82 L 329.984 1004.33 C 359.389 992.004 383.93 991.069 414.928 1001.34 C 418.591 1002.55 425.357 1005.83 426.825 1009.35 L 427.971 1010.35 C 432.066 1013.88 437.412 1016.39 441.421 1020.05 C 461.048 1037.96 466.04 1058.19 466.242 1083.69 C 470.764 1091.59 463.161 1115.49 456.539 1120.85 C 454.457 1122.48 450.822 1129.65 448.939 1132.32 C 411.826 1184.87 323.829 1190.87 289.352 1130.83 C 277.822 1110.38 274.944 1086.16 281.358 1063.58 C 289.346 1035.3 306.415 1019.74 330.883 1005.82 z"></path><path transform="translate(0,0)" fill="rgb(36,12,14)" d="M 330.883 1005.82 L 329.984 1004.33 C 359.389 992.004 383.93 991.069 414.928 1001.34 C 418.591 1002.55 425.357 1005.83 426.825 1009.35 C 423.562 1007.82 420.273 1006.34 416.959 1004.91 C 388.436 992.862 359.135 994.459 330.883 1005.82 z"></path><path transform="translate(0,0)" fill="rgb(36,12,14)" d="M 466.242 1083.69 C 470.764 1091.59 463.161 1115.49 456.539 1120.85 C 461.995 1107.09 465.049 1098.3 466.242 1083.69 z"></path><path transform="translate(0,0)" fill="rgb(253,227,217)" d="M 345.527 1020.1 C 351.49 1019.86 361.167 1022.87 362.867 1028.92 C 368.498 1048.96 354.469 1066.52 337.476 1073.58 C 307.193 1077.11 318.028 1028.88 345.527 1020.1 z"></path><path transform="translate(0,0)" fill="rgb(254,146,69)" d="M 1383.16 220.529 C 1387.89 211.434 1412.77 210.988 1421.95 211.682 L 1422.18 213.181 C 1425.88 214.684 1426.54 214.881 1430.45 215.735 C 1433.48 215.797 1432.02 215.421 1434.65 217.625 C 1435.95 221.186 1435.92 220.916 1435.45 224.672 L 1434.18 226.32 L 1433.71 226.096 C 1422.94 236.26 1406.04 243.344 1392.38 253.142 C 1355.89 278.964 1330.6 315.576 1305.85 351.972 C 1293.8 369.695 1304.42 371.734 1300.82 380.024 L 1300.87 380.022 C 1292.51 385.196 1262.85 381.503 1261.89 368.958 C 1265.02 361.807 1274.19 350.391 1278.76 342.67 C 1306.48 295.731 1332.63 246.065 1383.16 220.529 z"></path><path transform="translate(0,0)" fill="rgb(36,12,14)" d="M 1383.16 220.529 C 1387.89 211.434 1412.77 210.988 1421.95 211.682 L 1422.18 213.181 C 1405.76 213.158 1398.57 214.786 1383.16 220.529 z"></path><path transform="translate(0,0)" fill="rgb(36,12,14)" d="M 1430.45 215.735 C 1433.48 215.797 1432.02 215.421 1434.65 217.625 C 1435.95 221.186 1435.92 220.916 1435.45 224.672 L 1434.18 226.32 L 1433.71 226.096 C 1433.57 220.534 1433.67 219.985 1430.45 215.735 z"></path><path transform="translate(0,0)" fill="rgb(190,113,185)" d="M 415.509 1185.88 C 416.751 1185.97 415.982 1185.8 417.599 1186.98 C 420.041 1206.25 420.103 1227.92 422.291 1247.29 C 424.696 1268.58 426.06 1298.13 397.822 1300.77 C 387.096 1301.77 380.5 1299.43 371.998 1292.79 C 358.587 1278.65 358.048 1219.08 354.898 1196.03 C 376.895 1198.48 395.386 1194.39 415.509 1185.88 z"></path><path transform="translate(0,0)" fill="rgb(82,32,38)" d="M 1656.58 472.048 C 1659.08 471.947 1663.63 472.168 1666.14 472.978 C 1695.83 482.559 1690.95 528.649 1719.82 550.727 C 1731.39 561.85 1757.84 566.192 1765.03 580.972 C 1781.56 614.968 1738.43 622.432 1721.13 636.619 C 1703.96 650.704 1694.81 670.681 1687.41 690.122 C 1682.04 704.2 1679.41 713.841 1665.74 720.412 C 1640.45 726.281 1635.44 708.666 1627.27 688.729 C 1620.05 671.11 1612.11 654.298 1597.21 641.905 C 1585.73 631.233 1561.35 625.942 1555.58 610.136 C 1545.12 581.457 1574.58 573.532 1590.35 563.179 C 1596.85 558.849 1602.66 553.559 1607.58 547.49 C 1621.13 531.005 1624.76 514.139 1632.92 495.081 C 1638.43 482.198 1644.11 476.8 1656.58 472.048 z"></path><path transform="translate(0,0)" fill="rgb(254,174,95)" d="M 1646.31 670.259 C 1629.78 634.37 1617.7 621.383 1581.88 604.764 C 1579.87 603.828 1579.55 602.376 1578.88 600.54 C 1581.65 593.219 1608 584.162 1617.1 574.585 C 1629.23 561.817 1633.82 554.205 1641.8 538.608 C 1645.92 530.558 1655.39 501.647 1659.65 498.142 C 1662.9 499.677 1662.26 499.904 1664.62 503.418 C 1669.46 507.133 1680 533.135 1680.45 539.153 C 1683.86 546.132 1690.71 554.807 1695.52 561.048 C 1704.65 570.173 1711.93 575.437 1723.69 580.921 C 1728.29 583.068 1741.03 588.827 1742.88 592.937 C 1737.74 599.018 1717.44 610.233 1709.38 615.307 C 1678.67 634.635 1674.19 663.751 1657.71 691.602 C 1652.59 690.315 1646.96 675.015 1646.31 670.259 z"></path><path transform="translate(0,0)" fill="rgb(254,146,69)" d="M 1695.52 561.048 C 1704.65 570.173 1711.93 575.437 1723.69 580.921 C 1728.29 583.068 1741.03 588.827 1742.88 592.937 C 1737.74 599.018 1717.44 610.233 1709.38 615.307 C 1678.67 634.635 1674.19 663.751 1657.71 691.602 C 1652.59 690.315 1646.96 675.015 1646.31 670.259 C 1648.66 665.866 1654.71 647.393 1658.26 639.724 C 1671.46 611.258 1692.5 592.162 1695.52 561.048 z"></path><path transform="translate(0,0)" fill="rgb(36,12,14)" d="M 1664.62 503.418 C 1669.46 507.133 1680 533.135 1680.45 539.153 C 1674.09 528.99 1668.78 514.675 1664.62 503.418 z"></path><path transform="translate(0,0)" fill="rgb(254,112,139)" d="M 1782.61 906.076 C 1803.43 907.027 1801.85 933.722 1811.15 946.946 C 1818.18 956.957 1839.77 955.651 1844.3 967.403 C 1853.22 990.568 1827.98 993.166 1813.59 999.4 L 1812.5 999.882 C 1801.11 1014.63 1805.13 1034.19 1786.27 1041.82 C 1767.31 1040.49 1765.93 1015.24 1757.83 1000.98 C 1747.54 995.478 1709.22 987.789 1727.8 963.067 C 1735.39 955.485 1752.12 956.019 1758.35 947.383 C 1768.66 933.095 1762.42 912.154 1782.61 906.076 z"></path><path transform="translate(0,0)" fill="rgb(254,112,139)" d="M 295.352 1411.97 C 296.219 1411.91 297.087 1411.87 297.956 1411.85 C 313.529 1411.51 310.215 1433.61 318.563 1441.9 C 322.917 1447.02 335.808 1447.6 339.423 1452.76 C 352.983 1472.12 322.366 1472.88 317.073 1480.79 C 309.753 1491.72 313.501 1499.05 302.326 1507.51 C 282.453 1507.77 289.355 1488.49 278.064 1479.26 C 270.39 1472.98 252.605 1474.57 254.911 1458.97 C 255.508 1446.78 273.549 1448.23 278.81 1441.99 C 287.901 1431.2 282.378 1422 295.352 1411.97 z"></path></svg>